<svg width="190" height="214" fill="none" xmlns="http://www.w3.org/2000/svg"><path d="M13.014 75.457A11.945 11.945 0 001.07 87.4v113.282a11.944 11.944 0 0011.944 11.944h146.972a11.945 11.945 0 0011.944-11.944V87.401a11.944 11.944 0 00-11.944-11.944H13.014zm0-1.07h146.972A13.024 13.024 0 01173 87.401v113.282a13.03 13.03 0 01-13.014 13.013H13.014A13.023 13.023 0 010 200.683V87.401a13.027 13.027 0 0113.014-13.014z" fill="#fff"/><path d="M13.014 75.457h146.972c6.597 0 11.945 5.348 11.945 11.944v113.282c0 6.596-5.348 11.944-11.945 11.944H13.014c-6.597 0-11.944-5.348-11.944-11.944V87.401c0-6.596 5.347-11.944 11.944-11.944z" fill="#6CDCFF"/><path d="M171.931 101.126H.535" stroke="#fff" stroke-width="1.07" stroke-miterlimit="10"/><path d="M28.365 91.207a2.762 2.762 0 110-5.525 2.762 2.762 0 010 5.525zm-8.84 0a2.763 2.763 0 110-5.525 2.763 2.763 0 010 5.525zm-8.287 0a2.763 2.763 0 110-5.525 2.763 2.763 0 010 5.525z" fill="#fff"/><path d="M182.674 182.642l.107-.103v.213l-.107-.11z" fill="#FFBE21"/><path d="M66.311 64.715C53.873 73.803 54.83 88.638 55.306 94.379c4.192 6.14 7.353 11.258 9.445 15.621L62.5 125s-20.618 2.709-26 9.5c-12.531 15.813-25.59 56.058-20.218 78.825h102.033l-5.144-37.381s39.438 19.891 54.527 7.545c20.649-16.897 12.003-79.22 12.003-79.22l-17.49-18.175s1.269-7.617-2.057-9.946c-3.43-2.4-7.953 9.538-9.26 19.205-1.714 12.689-5.487 51.784-6.173 54.185 0 0-23.457-12.826-33.951-17.49-9.259-4.116-20.535-5.611-20.535-5.611l-1.437-8.611s6.701 2.407 12.442-.957c5.741-3.364 7.174-9.571 5.261-19.14-1.914-9.567-.477-22.97-6.218-30.144-5.74-7.174-21.533-11.958-33.972-2.87z" fill="#FFD5BD"/><path d="M102.802 93.398a1.423 1.423 0 110-2.846 1.423 1.423 0 010 2.846z" fill="#A7756A"/><path d="M61.5 125s-21 3.5-25.5 9.963c-12.531 15.813-25.09 55.595-19.717 78.362h102.032l-5.144-37.381s39.438 19.891 54.528 7.545c9.259-7.579 12.63-24.305 13.529-40.45L168.7 138.19l-6.89-2.668-1.444-.559-13.319-5.145c-1.088 10.162-2.017 18.643-2.326 19.72 0 0-23.457-12.826-33.951-17.49-8.213-3.653-18.011-5.241-20.117-5.553l-.46.066s-.99 2.208-3.703 4.249c-2.13 1.56-4.701 2.529-7.99 2.69-3.851.188-6.065-.939-9.5-2.69-3.3-1.683-7.5-5.81-7.5-5.81z" fill="#fff"/><path d="M50.667 205.7l1.063-13.819 63.422-2.48 3.897 24.093H73.697l-23.03-7.794z" fill="#F5EBDD"/><path d="M52 126.5s7.609 11.32 10.447 19.469C69.332 165.741 59.5 199.5 59.5 199.5l56-4s-3-38.5-7.315-52.985c-4.316-14.485-9.094-15.401-9.094-15.401L92.209 126c5.55 6.579 7.495 10.676 9.291 18.56H71.736L60 125l-8 1.5z" fill="#F5EBDD"/><path d="M115.563 189.956l-63.354 1.961m44.184-2.214s-10.989-14.117-6.288-16.257c3.796-1.728 5.425 9.575 6.288 16.257zm.337.243s4.527-11.941 7.797-10.214c2.638 1.394-3.893 6.969-7.797 10.214z" stroke="#FFCBBA" stroke-width=".992" stroke-linecap="round" stroke-linejoin="round"/><path d="M144.55 146.966l-1.372 10.288m-99.796 46.297c9.218 3.141 21.65 6.962 29.322 9.431m-19.551-42.765l-3.255 35.392" stroke="#F5EBDC" stroke-width="1.372" stroke-miterlimit="10" stroke-linecap="round"/><path d="M64 62.5C51.562 71.588 51.523 84.26 52 90c1.719 14.179 13 21.5 13 21.5 7.546-6.5 7.546-8.98 7.546-8.98s-11.16-2.479-9.572-11.481c1.438-8.142 11.006-8.142 16.27-2.4 0 0 41.298-11.155 34.256-25.139-3.856-7.657-11.783-8.085-17.5-4-5.74-7.174-19.562-6.088-32 3z" fill="#151414"/><circle r="15.441" transform="scale(-1 1) rotate(-11.649 281.347 312.18)" fill="#151414"/><path d="M57 69.5c-2.5 2.5-4 8-4 8m42.397-17.963s-1.184.487-3.397 3.298" stroke="#0B3EB8" stroke-width="2.113" stroke-linecap="round" stroke-linejoin="round"/><path d="M88.85 118.433a30.742 30.742 0 01-6.373-2.675m-8.532-20.936l-4.27-2.374m28.536 13.506c-.785.49-3.724.871-4.917-1.389" stroke="#A7756A" stroke-width="1.372" stroke-miterlimit="10" stroke-linecap="round"/><path d="M91.482 95.284a1.423 1.423 0 110-2.846 1.423 1.423 0 010 2.846z" fill="#A7756A"/><path d="M98.387 97.329c.22.946.4 1.978.25 2.332a2.087 2.087 0 01-.974.974m68.835-12.655s-6.516 5.487-7.202 6.859c0 0 10.631 10.974 2.401 24.348" stroke="#A7756A" stroke-width="1.372" stroke-miterlimit="10" stroke-linecap="round"/><path d="M131.578 52.454a2.734 2.734 0 114.664-2.854l51.947 84.914a2.735 2.735 0 01-4.664 2.853l-51.947-84.913z" fill="#151414"/><path d="M126.858 30.39l-5.906-4.726a3.016 3.016 0 00-4.644 1.124 3.01 3.01 0 00-.208 1.798l1.416 7.438a3.02 3.02 0 01-1.307 3.087l-6.317 4.156a3.021 3.021 0 00-1.284 3.205 3.018 3.018 0 002.564 2.313l7.486.957a3.021 3.021 0 012.534 2.198l2 7.291a3.023 3.023 0 004.418 1.816 3.018 3.018 0 001.226-1.329l3.221-6.859a3.016 3.016 0 012.874-1.714l7.544.342a3.02 3.02 0 003.142-3.632 3.02 3.02 0 00-.896-1.587l-5.511-5.178a3.023 3.023 0 01-.757-3.269l2.668-7.075a3.017 3.017 0 00-.848-3.353 3.021 3.021 0 00-3.439-.36l-6.629 3.645a3.025 3.025 0 01-3.347-.288zm30.56-11.052c.151-.607 1.013-.607 1.164 0l.926 3.717a.6.6 0 00.437.437l3.717.926c.607.15.607 1.013 0 1.164l-3.717.926a.6.6 0 00-.437.437l-.926 3.717c-.151.607-1.013.607-1.164 0l-.926-3.717a.6.6 0 00-.437-.437l-3.717-.926c-.607-.15-.607-1.013 0-1.164l3.717-.926a.6.6 0 00.437-.437l.926-3.717zm-31.5-17c.151-.607 1.014-.607 1.165 0l.228.915a.598.598 0 00.437.437l.915.228c.607.15.607 1.013 0 1.164l-.915.228a.598.598 0 00-.437.437l-.228.915c-.151.607-1.014.607-1.165 0l-.228-.915a.598.598 0 00-.437-.437l-.915-.228c-.607-.15-.607-1.013 0-1.164l.915-.228a.598.598 0 00.437-.437l.228-.915zm-29 40c.15-.607 1.013-.607 1.164 0l.228.915a.6.6 0 00.437.437l.915.228c.607.15.607 1.013 0 1.164l-.915.228a.6.6 0 00-.437.437l-.228.915c-.15.607-1.013.607-1.164 0l-.228-.915a.6.6 0 00-.437-.437l-.915-.228c-.607-.15-.607-1.013 0-1.164l.915-.228a.6.6 0 00.437-.437l.228-.915z" fill="#fff"/><path d="M162.211 86.094c2.401-2.058 7.013-3.392 9.26-2.058 3.793 2.253 2.86 6.63 2.86 6.63s6.173-.961 6.097 5.363c0 0 4.969 2.174 2.795 7.143 0 0 4.301 1.087 2.257 6.382-1.664 4.318-5.501 6.578-7.836 7.747-2.058 1.029-5.213-.456-4.116-4.458 0 0-2.4.686-3.772-.686-1.893-1.893-1.029-5.487-1.029-5.487s-2.4.686-4.115-.686c-2.092-1.673-1.029-4.801-1.029-4.801a4.26 4.26 0 01-3.429-2.744c-1.372-3.429 3.772-7.544 3.772-7.544l-1.715-4.801z" fill="#FFD5BD"/><path d="M183.474 103.367a83.173 83.173 0 01-9.946 10.162m6.859-17.531a70.746 70.746 0 01-12.023 11.588m6.536-16.633a50.21 50.21 0 01-11.554 10.998" stroke="#A7756A" stroke-width="1.372" stroke-miterlimit="10" stroke-linecap="round"/><path d="M166.498 87.98s-3.213 2.706-5.364 4.8" stroke="#151414" stroke-width="1.372" stroke-miterlimit="10" stroke-linecap="round"/></svg>