<svg width="355" height="292" fill="none" xmlns="http://www.w3.org/2000/svg"><path d="M137.643 57.314h5.308A45.511 45.511 0 01175.12 70.63a45.444 45.444 0 0113.324 32.144v89.69H92.15v-89.69a45.44 45.44 0 0113.325-32.144 45.509 45.509 0 0132.168-13.315z" fill="#FFB7D5"/><path d="M157.805 139.061v54.808h-42.777v-54.808h42.777zm1.108-1.107H113.92v57.021h44.993v-57.021z" fill="#CA7358"/><path d="M158.913 137.954H113.92v11.789h44.993v-11.789z" fill="#CA7358"/><path d="M113.704 109.455v84.687H87.936v-84.687h25.768zm1.108-1.107H86.828v86.901h27.984v-86.901zm78.314-16.027v101.537h-33.998V92.321h33.998zm1.107-1.107h-36.212v103.75h36.212V91.214z" fill="#CA7358"/><path d="M172.637 105.059h.529a4.53 4.53 0 014.535 4.531v10.544h-9.599V109.59a4.53 4.53 0 014.535-4.531z" fill="#CA7358"/><path d="M167.006 113.281h11.795" stroke="#FFB7D5" stroke-width="4" stroke-linecap="round" stroke-linejoin="round"/><path d="M172.637 132.105h.529a4.538 4.538 0 014.535 4.532v10.55h-9.599V136.64a4.538 4.538 0 014.535-4.532v-.003z" fill="#F5EBDD"/><path d="M167.006 140.331h11.795" stroke="#FFB7D5" stroke-width="4" stroke-linecap="round" stroke-linejoin="round"/><path d="M172.637 159.155h.529a4.538 4.538 0 014.535 4.532v10.544h-9.599v-10.544a4.538 4.538 0 014.535-4.532z" fill="#F5EBDD"/><path d="M167.006 167.378h11.795" stroke="#FFB7D5" stroke-width="4" stroke-linecap="round" stroke-linejoin="round"/><path d="M172.637 186.197h.529a4.533 4.533 0 014.535 4.532v9.683h-9.599v-9.683a4.533 4.533 0 014.535-4.532z" fill="#30242A"/><path d="M95.112 127.469h.53a4.536 4.536 0 014.534 4.532v10.543h-9.599v-10.543a4.532 4.532 0 014.535-4.532z" fill="#F5EBDD"/><path d="M89.48 135.691h11.795" stroke="#FFB7D5" stroke-width="4" stroke-linecap="round" stroke-linejoin="round"/><path d="M95.112 154.516h.53a4.536 4.536 0 014.534 4.531v10.55h-9.599V159.05a4.53 4.53 0 014.535-4.534z" fill="#F5EBDD"/><path d="M89.48 162.741h11.795" stroke="#FFB7D5" stroke-width="4" stroke-linecap="round" stroke-linejoin="round"/><path d="M95.112 181.565h.53a4.537 4.537 0 014.534 4.532v10.544h-9.599v-10.544a4.537 4.537 0 014.535-4.532z" fill="#CA7358"/><path d="M89.48 189.788h11.795" stroke="#FFB7D5" stroke-width="4" stroke-linecap="round" stroke-linejoin="round"/><path d="M194.233 91.214h-36.212v4.524h36.212v-4.524zm-79.421 14.94H86.828v4.524h27.984v-4.524z" fill="#CA7358"/><path d="M131.616 160.434h-9.602v12.336h9.602v-12.336z" fill="#F5EBDD"/><path d="M120.915 165.917h11.797m-5.898 7.401v-7.401" stroke="#FFB7D5" stroke-width="4" stroke-linecap="round" stroke-linejoin="round"/><path d="M131.616 182.713h-9.602v12.337h9.602v-12.337z" fill="#CA7358"/><path d="M120.915 188.194h11.797m-5.898 7.404v-7.404" stroke="#FFB7D5" stroke-width="4" stroke-linecap="round" stroke-linejoin="round"/><path d="M149.72 160.434h-9.602v12.336h9.602v-12.336z" fill="#30242A"/><path d="M139.022 165.917h11.798m-5.901 7.401v-7.401" stroke="#FFB7D5" stroke-width="4" stroke-linecap="round" stroke-linejoin="round"/><path d="M149.72 182.713h-9.602v12.337h9.602v-12.337z" fill="#F5EBDD"/><path d="M139.022 188.194h11.798m-5.901 7.404v-7.404" stroke="#FFB7D5" stroke-width="4" stroke-linecap="round" stroke-linejoin="round"/><path d="M120.297 90.802a7.13 7.13 0 007.132-7.127 7.13 7.13 0 00-7.132-7.127 7.13 7.13 0 00-7.132 7.127 7.13 7.13 0 007.132 7.127zm80.493 101.706H79.804v8.225H200.79v-8.225z" fill="#F5EBDD"/><path d="M142.209 49.133h-3.824c-30.071 0-54.464 24.37-54.464 54.426v97.174h112.755v-97.174c0-30.057-24.388-54.426-54.467-54.426zm-6.028 143.374H92.158v-68.533h44.023v68.533zm0-76.758H92.158v-11.91a46.462 46.462 0 0112.754-31.974 46.531 46.531 0 0131.269-14.44v58.324zm52.263 76.758h-44.023v-68.533h44.023v68.533zm0-76.758h-44.023V57.425a46.531 46.531 0 0131.269 14.44 46.465 46.465 0 0112.754 31.974v11.91z" fill="#F5EBDD"/><path d="M169.267 185.284s-19.01-45.595-19.84-57.481c-2.791-40.003 40.639-17.214 47.431-13.28 4.945 2.867 24.337 13.709 28.208 17.574 2.492 2.49.759 4.336.759 4.336s2.91 3.818-1.183 4.271c2.91 3.818-1.73 4.336-1.73 4.336s1.243 3.726-3.577 2.606c-5.194-1.209-44.577-18.244-44.577-18.244s8.799 27.758 11.546 36.54l-17.037 19.342z" fill="#A15842"/><path d="M211.721 144.467c.936-.185 1.567-.725 1.384-1.884-.595-3.807-6.96-7.404-6.96-7.404s2.552-6.139-2.459-10.881m19.163 20.545c-2.285-1.336-10.657-6.23-12.642-7.248m14.513 2.985c-2.857-1.71-9.818-6.04-12.692-7.545m13.731 2.869c-3.6-2.385-10.389-6.803-13.074-8.159m-2.8 9.324c.958-1.732 2.597-5.174 2.686-10.69" stroke="#30242A" stroke-width="4" stroke-miterlimit="10" stroke-linecap="round"/><path d="M174.653 130.05l-6.485-2.944" stroke="#30242A" stroke-width="4" stroke-linecap="round" stroke-linejoin="round"/><path d="M75.856 259.425v5.331h46.13v-5.331h-46.13z" fill="#A15842"/><path d="M129.583 287.083l-11.426-68.516h6.999a2.827 2.827 0 002.824-2.822 2.82 2.82 0 00-2.824-2.822H72.752a2.825 2.825 0 00-2.824 2.822 2.82 2.82 0 002.824 2.822h6.922l-11.427 68.511a2.361 2.361 0 00.525 1.925 2.363 2.363 0 001.812.841 2.374 2.374 0 002.317-1.865l15.148-69.412h21.743l15.134 69.41a2.365 2.365 0 002.315 1.864 2.362 2.362 0 002.289-1.738c.092-.332.11-.68.053-1.02z" fill="#FFBE21"/><path d="M125.156 218.567a2.827 2.827 0 002.824-2.822 2.82 2.82 0 00-2.824-2.822H72.752a2.826 2.826 0 00-2.824 2.822 2.82 2.82 0 002.824 2.822h6.922l-.014.085h8.359l.02-.085h21.742l.02.085h8.369l-.013-.085h6.999z" fill="#A15842"/><path d="M103.313 284.9H38.226l-12.274-37.743c-.911-2.799.623-5.068 3.422-5.068H84.32c2.802 0 5.814 2.269 6.72 5.068l12.273 37.743zm40.995 0h-64a3.776 3.776 0 01-3.6 4.942h64a3.783 3.783 0 003.062-1.553 3.769 3.769 0 00.538-3.389z" fill="#FFB7D5"/><path d="M80.308 284.9H38.289l.49 1.511a4.962 4.962 0 004.724 3.431h33.225a3.783 3.783 0 003.718-3.188 3.777 3.777 0 00-.138-1.754z" fill="#CA7358"/><path d="M98.878 284.9H43.223l-11.615-35.676h55.655L98.878 284.9z" fill="#F5EBDD"/><path d="M78.057 277.818H60.913c-1.905 0-3.948-1.544-4.569-3.445l-4.133-12.727c-.618-1.9.423-3.444 2.328-3.444h17.144c1.902 0 3.946 1.544 4.566 3.444l4.134 12.727c.617 1.901-.424 3.445-2.326 3.445z" fill="#3EC1F3"/><path d="M38.541 284.353h64.235" stroke="#CA7358" stroke-width="4" stroke-miterlimit="10" stroke-linecap="round"/><path d="M76.146 261.038l-6.761 7.215c-1.31 1.384-3.804 1.384-6.022 0l-11.164-7.033m17.451 6.823l10.66 6.715m-23.794.163l6.374-6.803" stroke="#F5EBDD" stroke-width="4" stroke-miterlimit="10" stroke-linecap="round"/><path d="M76.803 263.154c-2.132 0-4.43-1.743-5.133-3.873-.327-1.007-.241-1.937.243-2.598.446-.609 1.196-.946 2.115-.946 2.132 0 4.43 1.743 5.131 3.887.33 1.007.244 1.937-.244 2.595-.443.598-1.193.935-2.112.935z" fill="#4756DF"/><path d="M74.028 256.276c1.878 0 3.987 1.605 4.605 3.503.277.83.213 1.582-.163 2.103a1.994 1.994 0 01-1.662.719c-1.88 0-3.987-1.605-4.604-3.505-.277-.83-.213-1.58.163-2.1.338-.465.928-.72 1.661-.72zm0-1.106c-2.359 0-3.652 1.911-2.885 4.269.767 2.357 3.3 4.269 5.66 4.269 2.359 0 3.652-1.912 2.885-4.269-.767-2.358-3.3-4.269-5.66-4.269z" fill="#F5EBDD"/><path d="M301.875 160.312h-.07c-.493.891-3.74 6.338-9.447 6.338-5.706 0-8.954-5.447-9.449-6.338h-.067l-8.882 40.064h36.797l-8.882-40.064z" fill="#3EC1F3"/><path d="M278.168 181.623c7.536.789 19.24 7.515 23.307 18.637m-18.423.323c.845-9.061 8.03-24.036 20.96-28.72m-11.79-8.165c-3.176 3.345-7.179 6.46-11.709 8.552" stroke="#F5EBDD" stroke-width="4" stroke-miterlimit="10" stroke-linecap="round"/><path d="M292.358 166.65c5.706 0 8.954-5.447 9.447-6.338h-18.897c.496.891 3.741 6.338 9.45 6.338z" fill="#30242A"/><path d="M240.51 289.842a2.434 2.434 0 01-2.312-3.193l7.637-23.218a2.427 2.427 0 012.311-1.66h5.344a2.438 2.438 0 012.101 1.201 2.431 2.431 0 01.026 2.418l-12.98 23.218a2.446 2.446 0 01-2.127 1.234zm102.159 0a2.434 2.434 0 002.312-3.193l-7.637-23.218a2.43 2.43 0 00-2.311-1.66h-5.347a2.431 2.431 0 00-2.433 2.407c-.004.424.102.842.309 1.212l12.98 23.218a2.444 2.444 0 002.127 1.234z" fill="#A15842"/><path d="M354.456 199.922H229.153v71.679h125.303v-71.679z" fill="#FFB7D5"/><path d="M345.025 209.16v53.197H238.584V209.16h106.441zm1.108-1.107H237.476v55.411h108.657v-55.411z" fill="#CA7358"/><path d="M291.688 207.954v55.615" stroke="#CA7358" stroke-width="4" stroke-miterlimit="10"/><path d="M304.28 238.985a3.225 3.225 0 10-3.225-3.224 3.224 3.224 0 003.225 3.224zm-24.952 0a3.225 3.225 0 10-3.225-3.224 3.224 3.224 0 003.225 3.224z" fill="#30242A"/><path d="M107.073 178.505a8.11 8.11 0 015.731 2.372 8.095 8.095 0 012.373 5.726V213H98.969v-26.397c0-2.147.854-4.207 2.374-5.726a8.11 8.11 0 015.73-2.372z" fill="#4756DF"/><path d="M115.18 188.85H98.97v15.092h16.21V188.85z" fill="#3EC1F3"/><path d="M110.675 174.306h-7.204v5.099h7.204v-5.099zm95.53-42.812c5.536 0 10.023-4.484 10.023-10.015 0-5.532-4.487-10.016-10.023-10.016-5.535 0-10.022 4.484-10.022 10.016 0 5.531 4.487 10.015 10.022 10.015z" fill="#30242A"/><path d="M198.423 127.671c.8.362-5.986-15.494-9.386-12.982-3.198 2.355 5.338 11.142 9.386 12.982z" fill="#FFBE21"/><path d="M197.562 127.64c.664.83 16.682-4.427 14.541-7.686-2.054-3.126-15.206 6.862-14.541 7.686z" fill="#FFBE21"/><path d="M217.192 116.128a6.45 6.45 0 006.454-6.449 6.45 6.45 0 00-6.454-6.449 6.452 6.452 0 00-6.454 6.449 6.452 6.452 0 006.454 6.449z" fill="#30242A"/><path d="M173.113 223.978h32.957l1.739-8.233h-39.71l5.014 8.233zm-.287-27.168s6.73-8.782 19.361-9.606l8.387-18.003c-2.24-.357-3.854-.584-3.854-.584.332-.802 1.462-3.458 2.827-6.734-2.47-1.64-6.504-4.866-7.437-8.936 2.962-.446 8.86-3.24 6.531-8.129-2.851-5.995-10.399-1.383-10.399-1.383a17.388 17.388 0 01-4.203-9.252c-.916.094-3.541-.185-5.405-1.192l-.124-.072a63.176 63.176 0 00-2.68 6.012c-.208.526-.407 1.035-.618 1.519 0 0-2.605-.443-3.14.633-.661 1.328 1.321 3.044 1.321 3.044-1.584 2.977-2.987 5.414-2.478 8.502.449 2.725 3.021 6.037 9.082 6.59l-3.046 9.603-11.352 19.696c2.226 1.303 5.216 3.785 7.227 8.292zm80.205-38.557c-3.575-4.457-16.336-22.656-20.597-26.07-2.747-2.197-4.394-.277-4.394-.277s-4.12-2.47-4.12 1.647c-4.12-2.471-4.12 2.193-4.12 2.193s-3.846-.83-2.195 3.843c1.774 5.025 21.696 41.29 21.696 41.29s-20.6-7.683-28.563-9.73c-1.462-.377-3.253-.747-5.061-1.085-1.166 2.728-2.988 7.194-5.925 14.664-3.987 10.112-2.049 20.221 9.488 24.233l2.046-9.684s21.32 8.007 33.225 7.683c40.377-1.095 13.465-42.534 8.52-48.707z" fill="#CA7358"/><path d="M184.039 134.183a17.388 17.388 0 004.214 9.277s7.548-4.626 10.4 1.383c2.328 4.889-3.569 7.683-6.532 8.129.933 4.07 4.967 7.296 7.437 8.936 2.027-4.866 4.568-11.105 5.764-14.663 1.77-5.273 2.683-13.446-5.26-19.35-7.434-5.514-15.954-1.857-17.875.063-1.141 1.14-2.215 2.214-3.666 4.98l.125.072c1.852.977 4.477 1.256 5.393 1.173z" fill="#30242A"/><path d="M199.752 184.736c2.938-7.453 4.759-11.93 5.925-14.663-1.783-.335-3.58-.637-5.092-.877l-8.378 18.008c-12.631.83-19.362 9.606-19.362 9.606-2.021-4.507-5.011-6.989-7.224-8.3l-2.53 4.39a14.963 14.963 0 00.277 15.073l4.729 7.766h39.712l1.431-6.775c-11.537-4.007-13.475-14.116-9.488-24.228z" fill="#FFBE21"/><path d="M180.168 159.786a18.228 18.228 0 005.089-.752m35.338-13.825c.202-.703.7-1.16 1.678-1.091 3.845.277 7.963 6.314 7.963 6.314s5.911-3.043 11.058 1.536m-20.935-16.371a3533.92 3533.92 0 017.13 11.266m-3.165-13.615c2.215 3.259 6.091 8.82 7.562 11.147m-3.226-12.425c2.769 3.53 7.011 9.008 8.442 11.343m-9.062 3.55c1.661-1.107 4.942-3.019 10.435-3.566m-41.819 24.734l-4.867-.584m-12.36 53.787l-.274-.548m31.86-20.877l-2.749-1.079m37.35-15.917l-6.243-2.451" stroke="#30242A" stroke-width="4" stroke-miterlimit="10" stroke-linecap="round"/><path d="M207.809 215.745h-39.71m23.69-28.541l-4.012 8.953a7.632 7.632 0 01-6.958 4.501h-19.658" stroke="#30242A" stroke-width="4" stroke-linecap="round" stroke-linejoin="round"/><path d="M174.894 147.463c.473.407 2.395.96 3.422-.426" stroke="#30242A" stroke-width="4" stroke-miterlimit="10" stroke-linecap="round"/><path d="M194.402 146.603l-3.477 1.347" stroke="#A15842" stroke-width="4" stroke-miterlimit="10" stroke-linecap="round"/><path d="M181.431 141.166a1.992 1.992 0 01-2.143-.826 1.99 1.99 0 01-.305-.751" stroke="#30242A" stroke-width="4" stroke-linecap="round" stroke-linejoin="round"/><path d="M190.773 151.503l-1.257 5.132a1.592 1.592 0 001.916 1.937l4.693-1.107a1.59 1.59 0 00.83-2.584l-3.436-4.015a1.594 1.594 0 00-2.316-.102 1.592 1.592 0 00-.43.739z" fill="#F4E6D8"/><path d="M201.344 270.752c-2.747-3.296-12.302-15.217-12.302-15.217" stroke="#30242A" stroke-width="4" stroke-linecap="round" stroke-linejoin="round"/><path d="M275.546 244.02c-1.008-2.722-2.857-7.285-5.139-12.763l-24.487 7.141-2.807.885c1.262 8.159 2.232 12.138 2.232 12.138s-26.365-24.15-39.272-27.443h-32.971l-11.26 65.864h98.318c28.025 0 20.06-33.206 15.386-45.822z" fill="#4856DF"/><path d="M248.886 181.076a3.563 3.563 0 00-3.993-2.111c-4.881 1.09-5.26 10.325-6.418 15.648-1.921 8.784-6.041 12.076-6.315 17.839-.277 5.534 8.514 7.683 8.514 7.683.299 2.898.602 5.588.911 8.071l24.47-7.31c-6.712-15.809-14.661-34.071-17.169-39.82zm-5.787 58.144v.064l2.808-.886-2.808.822z" fill="#A15842"/><path d="M270.413 231.249c-.072-.169-.141-.34-.213-.512l-24.28 7.661 24.493-7.149z" fill="#3EC1F3"/><path d="M270.2 230.74c-1.276-3.06-2.683-6.394-4.153-9.841l-24.47 7.309a361.737 361.737 0 001.514 11.015l2.819-.83 24.29-7.653z" fill="#3EC1F3"/><path d="M196.011 223.893c8.777 9.199 54.162 55.831 68.28 51.128 10.308-3.434-4.87-37.262-6.316-41.713" stroke="#3EC1F3" stroke-width="4" stroke-linecap="round" stroke-linejoin="round"/><path d="M257.272 261.339c-3.181-2.849-8.86-7.932-11.877-10.615m-5.82-36.899l.537 5.735m6.363-40.109l1.041 2.916m-3.534-2.639l1.684 4.136" stroke="#30242A" stroke-width="4" stroke-linecap="round" stroke-linejoin="round"/><path d="M180.171 260.576l-.155-.047 5.729-36.606h-12.643s-50.521 19.267-62.056 37.651c-10.903 17.378 9.063 28.267 14.83 28.267h50.3l3.995-29.265z" fill="#4856DF"/><path d="M233.256 289.841c6.593 0 4.397-7.412-.276-9.879-4.674-2.468-10.162-4.942-15.929-12.625-5.767-7.683-12.634-5.763-17.028-.276 0 0-3.35-1.204-8.273-2.836l-3.854 25.614 45.36.002z" fill="#CA7358"/><path d="M180.653 260.72l-.482-.144-3.995 29.265h11.723l3.854-25.624a443.661 443.661 0 00-11.1-3.497z" fill="#3EC1F3"/><path d="M230.235 286.823l4.057 2.465m-81.227-35.123c11.535 2.194 16.524 3.597 26.959 6.917m46.917 27.113l2.367 1.37m-28.731-22.845l3.843 1.442" stroke="#30242A" stroke-width="4" stroke-linecap="round" stroke-linejoin="round"/><path d="M293.23 163.305c.587-3.464 3.256-17.203 9.788-24.637" stroke="#30242A" stroke-width="4" stroke-miterlimit="10" stroke-linecap="round"/><path d="M307.036 150.652c5.703-2.464 9.877-5.5 9.322-6.782-.555-1.282-5.627-.324-11.33 2.14-5.703 2.463-9.876 5.5-9.322 6.782.555 1.281 5.628.324 11.33-2.14zm.569-35.861c2.062-2.748 2.956-5.558 1.996-6.277-.959-.719-3.408.927-5.47 3.675-2.062 2.748-2.956 5.559-1.997 6.277.959.719 3.409-.926 5.471-3.675z" fill="#30242A"/><path d="M318.739 133.32c-.402-1.306-3.004-1.726-6.299-1.176 2.411-3.256 3.408-6.435 2.215-7.439-1.194-1.005-4.153.512-6.966 3.43 0-3.336-.862-5.832-2.215-6.006-1.728-.224-3.622 3.414-4.231 8.123a21.184 21.184 0 00-.15 4.059 5.024 5.024 0 014.695.918 5.01 5.01 0 011.79 4.432 21.303 21.303 0 003.854-.81c4.538-1.389 7.811-3.865 7.307-5.531z" fill="#FFBE21"/><path d="M305.822 135.262a5.006 5.006 0 00-4.734-.951c.147 2.243.703 3.964 1.553 4.606.789.744 2.633 1.002 4.931.744a5.01 5.01 0 00-1.75-4.399z" fill="#30242A"/><path d="M291.419 162.865c-.191-3.934-1.334-23.24-5.62-34.641" stroke="#30242A" stroke-width="4" stroke-miterlimit="10" stroke-linecap="round"/><path d="M277.285 151.793c7.364-1.403 13.134-3.594 12.886-4.893-.248-1.3-6.419-1.217-13.784.186-7.365 1.402-13.134 3.593-12.886 4.893.248 1.299 6.419 1.216 13.784-.186z" fill="#30242A"/><path d="M288.941 111.807c-1.334-.294-2.976 1.77-4.114 4.908-1.661-3.697-3.943-6.123-5.399-5.581-1.456.542-1.597 3.874-.426 7.747-2.916-1.627-5.507-2.111-6.324-1.015-1.044 1.383 1.199 4.827 5.009 7.669a21.377 21.377 0 003.466 2.122 5.014 5.014 0 013.103-3.638 5.015 5.015 0 014.744.614 21.65 21.65 0 001.182-3.755c1.016-4.637.462-8.698-1.241-9.071z" fill="#FFBE21"/><path d="M284.306 124.002a5.001 5.001 0 00-3.153 3.658c2.029.971 3.801 1.33 4.779.907 1.035-.326 2.165-1.807 3.067-3.931a5.018 5.018 0 00-4.693-.634z" fill="#30242A"/><path d="M271.529 132.368v.017a5.016 5.016 0 012.096 6.452 5.023 5.023 0 01-6.252 2.636v.02c6.197 2.83 12.152 3.079 13.29.553 1.138-2.526-2.938-6.85-9.134-9.678z" fill="#FFBE21"/><path d="M272.027 140.787a2.435 2.435 0 012.029-4.41 5.024 5.024 0 00-2.536-3.992l-4.153 9.089a5.011 5.011 0 004.66-.687z" fill="#F5EBDD"/><path d="M271.003 137.653a2.43 2.43 0 001.024 3.134 5.002 5.002 0 002.03-4.41 2.438 2.438 0 00-3.054 1.276z" fill="#30242A"/></svg>