<svg width="295" height="235" fill="none" xmlns="http://www.w3.org/2000/svg"><path d="M205.379 206.197s-44.602 3.895-56.401-10.305c-11.799-14.2-1.799-36.115 11.213-44.882 9.035-6.084 15.958-12.728 20.677-17.405 5.933-5.875 10.339-10.238 12.178-18.328 3.65-16.102-3.599-21.571-13.116-27.72-13.52-8.728-47.22 6.708-73.613 20.091-26.394 13.382-66.541 88.244-66.541 88.244" stroke="#282E30" stroke-width="4.618" stroke-miterlimit="10"/><path d="M29.411 209.858c.051-.707 13.471-23.164 13.471-23.164l5.197.844-12.513 21.522-6.155.798z" fill="#282E30"/><path d="M12.938 214.758l42.617 1.197-.586-2.935c-.623-3.143-4.837-5.366-8.069-5.424l-25.754-.521a7.1 7.1 0 00-6.58 4.134l-1.628 3.549z" fill="#282E30"/><path d="M14.036 212.354l41.14 1.243-.587-2.935c-.623-3.143-3.36-5.412-6.591-5.47l-25.754-.521a7.1 7.1 0 00-6.58 4.134l-1.628 3.549z" fill="#99E7FF"/><path d="M203.671 210.691l12.321-1.042-.73-8.559-12.334 1.029.743 8.572z" fill="#1A1E21"/><path d="M257.986 213.153l-37.601 3.14c-7.184.599-12.972-5.693-11.642-12.663l3.715-19.515c1.278-6.67 6.91-11.685 13.794-12.259l39.961-3.348c8.448-.703 15.893 5.459 16.61 13.77l2.477 28.595-27.314 2.28z" fill="#99E7FF"/><path d="M211.468 189.339l52.269-4.364" stroke="#fff" stroke-width="2.639" stroke-miterlimit="10"/><path d="M249.447 201.481c-1.069-12.337 8.24-23.176 20.782-24.231 12.542-1.055 23.572 8.103 24.641 20.427a21.954 21.954 0 01-2.698 12.61l-37.901 3.166a21.953 21.953 0 01-4.824-11.972z" fill="#D3E5FF"/><path d="M255.092 201.012c.808 9.262 9.087 16.141 18.514 15.346 9.426-.795 16.414-8.937 15.619-18.212-.809-9.263-9.088-16.141-18.514-15.346-9.439.794-16.427 8.949-15.619 18.212z" fill="#3C4149"/><path d="M265.053 200.178c.339 3.856 3.781 6.709 7.705 6.383 3.924-.325 6.832-3.725 6.493-7.569-.339-3.856-3.781-6.709-7.705-6.383-3.912.326-6.819 3.713-6.493 7.569z" fill="#1A1E21"/><path d="M200.675 131.306a4.545 4.545 0 110-9.09 4.545 4.545 0 010 9.09z" fill="#F5EBDD"/><path d="M200.674 121.729v3.682" stroke="#A7756A" stroke-width="1.368" stroke-miterlimit="10" stroke-linecap="round"/><path d="M180.967 13.185c4.529 2.912 1.472 9.086-2.701 9.33a16.618 16.618 0 00-.493 11.79h-6.357l-.023-2.678c-5.813 1.447-7.954-.837-9.081-2.9-1.271-2.339-.895-4.528-.46-7.374 0 0-2.078-.826-1.92-2.08.127-1.017 2.342-1.39 2.342-1.39.033-.448.056-.911.069-1.392.022-1.275.116-2.549.279-3.814 4.883 2.601 10.963 3.951 10.963 3.951s3.944-5.655 7.382-3.443zm-75.677 92.544c-2.662 1.018-4.625-.699-4.135-1.683.321-.641 9.534-7.552 19.042-14.576l10.891 13.582c-2.5.958-4.148 1.5-4.148 1.5s-2.7 4.173-6.631 6.629c0 0-4.173 10.068-6.383 9.824-1.485-.166.491-5.895.981-8.351 0 0-4.913 8.351-8.104 8.351-.737 0-1.416-.509-1.472-1.719 0 0-1.62.445-2.213-.738-.254-.491-.254-1.228-.254-1.719 0 0-1.271.354-1.965-.491-1.17-1.413 1.393-6.087 4.391-10.609z" fill="#FFD9CE"/><path d="M207.734 62.546c.128-.112.273-.234.434-.367a20.53 20.53 0 01-.434.367z" fill="#99E7FF"/><path d="M141.178 74.088s11.331-26.077 15.962-32.17c4.671-6.142 14.299-5.806 14.299-5.806l-.015-1.808h6.357s-6.866 13.752 6.141 19.647c4.91 15.961 20.137 11.786 23.819 8.595 1.475 2.7 8.842 14.733 4.913 23.82-3.438 7.12-15.717 5.647-15.717 5.647l-2.457-5.157h-31.194 9.946l-7.983-17.424-2.71 6.62s-3.446 8.83-10.805 15.717c-5.256 4.918-15.08 9.131-20.656 11.27L120.187 89.47c10.331-7.626 20.991-15.382 20.991-15.382z" fill="#99E7FF"/><path d="M196.047 75.71l5.057 2.307m-6.876 9.823l3.298-22.212" stroke="#151414" stroke-width="1.368" stroke-linecap="round" stroke-linejoin="round"/><path d="M173.231 86.846l-9.945.01-.737-10.805 2.7-6.63 7.982 17.425z" fill="#68C9FF"/><path d="M167.922 2.215c2.474-1.383 6.357-2.759 10.744-1.393 8.043 2.505 9.586 9.47 10.649 14.082a281.6 281.6 0 011.475 6.866s13.752.982 12.277 14.98c7.311 1.671 14.973 11.51 9.096 20.91a19.467 19.467 0 01-3.994 4.51 20.92 20.92 0 00-.435.365c-3.682 3.192-18.909 7.375-23.82-8.594-13.017-5.895-6.141-19.647-6.141-19.647a16.624 16.624 0 01.493-11.789c4.173-.254 7.23-6.418 2.701-9.33-3.438-2.212-7.374 3.461-7.374 3.461s-6.08-1.35-10.963-3.952v-.027c0-.008-3.911-1.887-4.986-5.376-1.971-6.375 6.133-9.813 10.278-5.066z" fill="#151414"/><path d="M162.928 76.43c1.393-3.273 3.779-9.083 5.269-13.884" stroke="#151414" stroke-width="1.368" stroke-linecap="round" stroke-linejoin="round"/><path d="M115.26 112.931l.875-2.009m-10.812 8.15c1.597-2.083 4.913-6.749 7.629-10.36m-10.426 7.817c1.953-2.871 4.946-7.374 6.978-10.271m-4.794-.641a135.736 135.736 0 013.052-4.495" stroke="#A7756A" stroke-width="1.368" stroke-linecap="round" stroke-linejoin="round"/><path d="M167.25 2.03c-.564.399-1.195.864-1.754 1.332m25.915 18.693l.608 2.917m11.549 12.238a17.264 17.264 0 01-2.22 5.69" stroke="#F5EBDD" stroke-width="1.368" stroke-linecap="round" stroke-linejoin="round"/><path d="M171.535 32.105a16.452 16.452 0 002.813-1.292" stroke="#A7756A" stroke-width="1.368" stroke-linecap="round" stroke-linejoin="round"/><path d="M153.463 137.16a4.541 4.541 0 006.431 1.82 4.541 4.541 0 001.673-1.82 4.543 4.543 0 008.104 0c.378.75.957 1.38 1.673 1.82a4.529 4.529 0 004.757 0 4.532 4.532 0 001.672-1.82c.172.335.385.649.633.933-6.772 18.26-2.596 27.102-.633 44.783.397 3.751.511 7.527.341 11.295H154.62c-.855-7.445-2.612-17.502-3.616-29.973a8.84 8.84 0 00-.488-17.663h-.255c0-2.38.074-4.717.194-7.008a4.54 4.54 0 003.008-2.367z" fill="#0B3EB8"/><path d="M153.303 209.973c-5.253 3.876-7.049 6.243-6.612 9.322l13.433-.667s4.918-4.69 8.455-5.531l.005.01a39.295 39.295 0 017.156-1.172 102.75 102.75 0 001.053-18.372l-20.391.902c1.264 8.071 1.07 12.432-3.099 15.508z" fill="#6DB9FF"/><path d="M167.971 218.241l6.551-.326a53.075 53.075 0 001.205-5.973 39.209 39.209 0 00-7.156 1.172l-.6 5.127z" fill="#151414"/><path d="M156.421 202.884l4.506-.33m-5.247 3.967l4.506-.328" stroke="#F5EBDD" stroke-width="1.643" stroke-miterlimit="10" stroke-linecap="round"/><path d="M217.179 205.194c-3.117 5.736-3.741 8.641-2.042 11.245l11.886-6.294s2.469-6.331 5.316-8.591l.01.007a39.135 39.135 0 015.986-4.092 102.765 102.765 0 00-6.828-17.09l-18.09 9.454c4.564 6.776 6.235 10.809 3.762 15.361z" fill="#6DB9FF"/><path d="M233.968 206.471l5.796-3.07c-.366-2-.846-3.977-1.439-5.921a39.311 39.311 0 00-5.986 4.093l1.629 4.898z" fill="#151414"/><path d="M217 197.452l3.942-2.208m-3.072 5.816l3.943-2.206" stroke="#F5EBDD" stroke-width="1.643" stroke-miterlimit="10" stroke-linecap="round"/><path d="M181.272 139.619a5.185 5.185 0 01-.432-.071h-.031a4.924 4.924 0 01-.404-.115l-.066-.018a4.655 4.655 0 01-.414-.168h-.018c-.135-.063-.255-.132-.394-.208l-.023-.015a4.122 4.122 0 01-.384-.255 4.479 4.479 0 01-.689-.645 4.59 4.59 0 01-.634-.934 4.535 4.535 0 01-8.101 0 4.543 4.543 0 01-6.431 1.821 4.537 4.537 0 01-1.673-1.821 4.546 4.546 0 01-4.053 2.494 4.543 4.543 0 01-4.052-2.494 4.536 4.536 0 01-3.003 2.37 147.14 147.14 0 012.571-20.536 14.148 14.148 0 0010.98-1.478c7.047-4.025 8.811-23.722 9.218-30.698h21.234c12.279 11.052 12.033 43.96 14.367 51.174.064.198.13.389.193.58a4.55 4.55 0 01-3.823.949 4.528 4.528 0 01-3.124-2.399 4.542 4.542 0 01-6.431 1.82 4.528 4.528 0 01-1.673-1.82 4.542 4.542 0 01-6.431 1.82 4.528 4.528 0 01-1.673-1.82 4.568 4.568 0 01-2.332 2.157 4.62 4.62 0 01-.819.254h-.041c-.117.023-.234.04-.353.053h-.097c-.135 0-.272.021-.409.021-.138 0-.303 0-.453-.023l-.102.005z" fill="#151414"/><path d="M159.355 155.372a8.842 8.842 0 01-8.351 8.827 227.403 227.403 0 01-.735-16.194v-1.467h.254a8.84 8.84 0 018.832 8.834z" fill="#0B3EB8"/><path fill-rule="evenodd" clip-rule="evenodd" d="M187.551 138.98a4.544 4.544 0 01-1.674-1.82 4.562 4.562 0 01-2.342 2.166c.812 2.38 2.086 6.07 3.842 10.306l-.165.071a109.754 109.754 0 006.915 13.557c.541.886 1.097 1.774 1.663 2.662l-.013.008c2.683 4.289 5.623 8.575 8.442 12.685 3.047 4.443 5.953 8.68 8.239 12.49l21.106-10.729a95.4 95.4 0 00-7.903-14.937 674.48 674.48 0 00-8.938-13.322c-4.467-6.523-6.157-8.99-7.69-13.508a4.536 4.536 0 01-6.947-1.449 4.543 4.543 0 01-8.104 0 4.544 4.544 0 01-4.052 2.493 4.538 4.538 0 01-2.379-.673z" fill="#0B3EB8"/><path d="M164.021 117.546a14.124 14.124 0 01-10.99 1.44c3.814-19.446 10.255-32.138 10.255-32.138h9.953c-.407 6.983-2.171 26.681-9.218 30.698z" fill="#68C9FF"/><path d="M164.016 23.713c.427.216 1.961.28 2.472-.94" stroke="#A7756A" stroke-width="1.368" stroke-linecap="round" stroke-linejoin="round"/><path d="M165.005 18.342a.737.737 0 110-1.474.737.737 0 010 1.474z" fill="#A7756A"/><path d="M179.001 17.358l-2.453 1.72" stroke="#A7756A" stroke-width="1.368" stroke-linecap="round" stroke-linejoin="round"/><path d="M194.719 86.856h-31.433" stroke="#151414" stroke-width="1.368" stroke-miterlimit="10" stroke-linecap="round"/><path d="M185.697 87.593s-5.752 8.224-3.052 9.111c2.497.82 2.988-5.322 3.052-9.11zm.178 0s2.95 7.375 5.159 6.139c1.44-.799-2.209-4.412-5.159-6.139z" stroke="#FFD9CE" stroke-width="1.368" stroke-linecap="round" stroke-linejoin="round"/></svg>