<svg width="190" height="214" viewBox="0 0 190 214" fill="none" xmlns="http://www.w3.org/2000/svg">
<path d="M13.0138 75.4568C9.84598 75.4568 6.80789 76.7152 4.56792 78.9551C2.32794 81.1951 1.06955 84.2332 1.06955 87.401V200.683C1.06955 203.85 2.32794 206.888 4.56792 209.128C6.80789 211.368 9.84598 212.627 13.0138 212.627H159.986C163.154 212.627 166.192 211.368 168.432 209.128C170.672 206.888 171.93 203.85 171.93 200.683V87.401C171.93 84.2332 170.672 81.1951 168.432 78.9551C166.192 76.7152 163.154 75.4568 159.986 75.4568H13.0138ZM13.0138 74.3872H159.986C163.437 74.3907 166.745 75.763 169.184 78.2028C171.624 80.6425 172.996 83.9506 173 87.401V200.683C172.996 204.133 171.624 207.441 169.184 209.881C166.745 212.321 163.437 213.693 159.986 213.696H13.0138C9.5634 213.693 6.25534 212.321 3.81555 209.881C1.37576 207.441 0.00352478 204.133 -1.52588e-05 200.683V87.401C0.00352478 83.9506 1.37576 80.6425 3.81555 78.2028C6.25534 75.763 9.5634 74.3907 13.0138 74.3872Z" fill="white"/>
<path d="M13.014 75.457H159.986C166.583 75.457 171.931 80.8046 171.931 87.4013V200.683C171.931 207.279 166.583 212.627 159.986 212.627H13.014C6.41739 212.627 1.06976 207.279 1.06976 200.683V87.4013C1.06976 80.8046 6.41739 75.457 13.014 75.457Z" fill="#6CDCFF"/>
<path d="M171.931 101.126H0.534984" stroke="white" stroke-width="1.06955" stroke-miterlimit="10"/>
<path d="M28.3649 91.2072C26.8392 91.2072 25.6024 89.9704 25.6024 88.4447C25.6024 86.919 26.8392 85.6821 28.3649 85.6821C29.8906 85.6821 31.1274 86.919 31.1274 88.4447C31.1274 89.9704 29.8906 91.2072 28.3649 91.2072Z" fill="white"/>
<path d="M19.5251 91.2072C17.9993 91.2072 16.7625 89.9704 16.7625 88.4447C16.7625 86.919 17.9993 85.6821 19.5251 85.6821C21.0508 85.6821 22.2876 86.919 22.2876 88.4447C22.2876 89.9704 21.0508 91.2072 19.5251 91.2072Z" fill="white"/>
<path d="M11.2375 91.2072C9.71175 91.2072 8.47491 89.9704 8.47491 88.4447C8.47491 86.919 9.71175 85.6821 11.2375 85.6821C12.7632 85.6821 14 86.919 14 88.4447C14 89.9704 12.7632 91.2072 11.2375 91.2072Z" fill="white"/>
<path d="M182.674 182.642L182.781 182.539V182.752L182.674 182.642Z" fill="#FFBE21"/>
<path d="M66.3113 64.7147C53.8728 73.8026 54.8296 88.6382 55.3063 94.3791C59.4978 100.519 62.659 105.637 64.751 110L62.5 125C62.5 125 41.8817 127.709 36.5 134.5C23.9689 150.313 10.9108 190.558 16.2825 213.325H71.2565H118.315L113.171 175.944C113.171 175.944 152.609 195.835 167.698 183.489C188.347 166.592 179.701 104.269 179.701 104.269L162.211 86.0936C162.211 86.0936 163.48 78.4769 160.154 76.1483C156.724 73.7477 152.201 85.6855 150.894 95.353C149.18 108.042 145.407 147.137 144.721 149.538C144.721 149.538 121.264 136.712 110.77 132.048C101.511 127.932 90.2348 126.437 90.2348 126.437L88.7979 117.826C88.7979 117.826 95.499 120.233 101.24 116.869C106.981 113.505 108.414 107.298 106.501 97.7296C104.587 88.1615 106.024 74.7594 100.283 67.5851C94.5422 60.4108 78.7497 55.6267 66.3113 64.7147Z" fill="#FFD5BD"/>
<path d="M102.802 93.3984C102.016 93.3984 101.379 92.7612 101.379 91.9752C101.379 91.1892 102.016 90.552 102.802 90.552C103.588 90.552 104.226 91.1892 104.226 91.9752C104.226 92.7612 103.588 93.3984 102.802 93.3984Z" fill="#A7756A"/>
<path d="M61.5 125C61.5 125 40.5 128.5 36 134.963C23.4689 150.776 10.9109 190.558 16.2827 213.325H71.2566H118.315L113.171 175.944C113.171 175.944 152.609 195.835 167.699 183.489C176.958 175.91 180.329 159.184 181.228 143.039L168.7 138.19L161.81 135.522L160.366 134.963L147.047 129.818C145.959 139.98 145.03 148.461 144.721 149.538C144.721 149.538 121.264 136.712 110.77 132.048C102.557 128.395 92.759 126.807 90.6534 126.495L90.1938 126.561C90.1938 126.561 89.2027 128.769 86.4901 130.81C84.3598 132.37 81.7885 133.339 78.5 133.5C74.6487 133.688 72.4353 132.561 69 130.81C65.6992 129.127 61.5 125 61.5 125Z" fill="white"/>
<path d="M50.667 205.7L51.7299 191.881L115.152 189.401L119.049 213.494H73.6973L50.667 205.7Z" fill="#F5EBDD"/>
<path d="M52 126.5C52 126.5 59.609 137.82 62.4467 145.969C69.3323 165.741 59.5 199.5 59.5 199.5L115.5 195.5C115.5 195.5 112.5 157 108.185 142.515C103.869 128.03 99.0905 127.114 99.0905 127.114L92.209 126C97.7597 132.579 99.7037 136.676 101.5 144.56H71.7361L60 125L52 126.5Z" fill="#F5EBDD"/>
<path d="M115.563 189.956L52.209 191.917" stroke="#FFCBBA" stroke-width="0.992075" stroke-linecap="round" stroke-linejoin="round"/>
<path d="M96.3931 189.703C96.3931 189.703 85.4041 175.586 90.1045 173.446C93.9006 171.718 95.5305 183.021 96.3931 189.703Z" stroke="#FFCBBA" stroke-width="0.992075" stroke-linecap="round" stroke-linejoin="round"/>
<path d="M96.73 189.946C96.73 189.946 101.257 178.005 104.527 179.732C107.165 181.126 100.634 186.701 96.73 189.946Z" stroke="#FFCBBA" stroke-width="0.992075" stroke-linecap="round" stroke-linejoin="round"/>
<path d="M144.55 146.966L143.178 157.254" stroke="#F5EBDC" stroke-width="1.37176" stroke-miterlimit="10" stroke-linecap="round"/>
<path d="M43.3822 203.551C52.6004 206.692 65.032 210.513 72.7036 212.982" stroke="#F5EBDC" stroke-width="1.37176" stroke-miterlimit="10" stroke-linecap="round"/>
<path d="M53.1528 170.217L49.8983 205.609" stroke="#F5EBDC" stroke-width="1.37176" stroke-miterlimit="10" stroke-linecap="round"/>
<path d="M63.9999 62.5C51.5615 71.588 51.5232 84.2592 51.9999 90C53.7189 104.179 64.9999 111.5 64.9999 111.5C72.546 105 72.546 102.52 72.546 102.52C72.546 102.52 61.3867 100.041 62.9745 91.0388C64.4115 82.8974 73.9795 82.8974 79.2437 88.6382C79.2437 88.6382 120.542 77.4843 113.5 63.5C109.644 55.8425 101.717 55.4148 95.9999 59.4999C90.2591 52.3256 76.4384 53.4121 63.9999 62.5Z" fill="#151414"/>
<circle r="15.4411" transform="matrix(-0.979401 -0.201923 -0.201923 0.979401 57.241 63.2409)" fill="#151414"/>
<path d="M57 69.5C54.5003 72.0001 53.0001 77.4999 53.0001 77.4999" stroke="#0B3EB8" stroke-width="2.11261" stroke-linecap="round" stroke-linejoin="round"/>
<path d="M95.3975 59.5374C95.3975 59.5374 94.2132 60.0244 92 62.8354" stroke="#0B3EB8" stroke-width="2.11261" stroke-linecap="round" stroke-linejoin="round"/>
<path d="M88.8491 118.433C86.6314 117.784 84.494 116.886 82.4773 115.758" stroke="#A7756A" stroke-width="1.37176" stroke-miterlimit="10" stroke-linecap="round"/>
<path d="M73.9448 94.8216L69.6752 92.4485" stroke="#A7756A" stroke-width="1.37176" stroke-miterlimit="10" stroke-linecap="round"/>
<path d="M98.2114 105.954C97.4261 106.444 94.4871 106.825 93.2937 104.565" stroke="#A7756A" stroke-width="1.37176" stroke-miterlimit="10" stroke-linecap="round"/>
<path d="M91.4816 95.2844C90.6956 95.2844 90.0584 94.6472 90.0584 93.8612C90.0584 93.0752 90.6956 92.438 91.4816 92.438C92.2676 92.438 92.9048 93.0752 92.9048 93.8612C92.9048 94.6472 92.2676 95.2844 91.4816 95.2844Z" fill="#A7756A"/>
<path d="M98.3866 97.3286C98.6061 98.2751 98.7878 99.3074 98.6369 99.6606C98.4322 100.086 98.0888 100.43 97.663 100.635" stroke="#A7756A" stroke-width="1.37176" stroke-miterlimit="10" stroke-linecap="round"/>
<path d="M166.498 87.9797C166.498 87.9797 159.982 93.4668 159.296 94.8386C159.296 94.8386 169.927 105.813 161.697 119.187" stroke="#A7756A" stroke-width="1.37176" stroke-miterlimit="10" stroke-linecap="round"/>
<path d="M131.578 52.4536C130.79 51.1657 131.195 49.4829 132.483 48.6949C133.771 47.907 135.454 48.3124 136.242 49.6003L188.189 134.514C188.977 135.802 188.571 137.485 187.284 138.273C185.996 139.061 184.313 138.655 183.525 137.367L131.578 52.4536Z" fill="#151414"/>
<path d="M126.858 30.3898L120.952 25.664C120.471 25.2776 119.882 25.0482 119.266 25.0068C118.65 24.9654 118.036 25.114 117.507 25.4325C116.978 25.751 116.559 26.2241 116.308 26.788C116.056 27.3519 115.983 27.9794 116.1 28.5859L117.516 36.0243C117.628 36.6103 117.563 37.2162 117.331 37.7656C117.098 38.3149 116.708 38.783 116.209 39.1108L109.892 43.2672C109.376 43.6058 108.976 44.0947 108.746 44.6678C108.517 45.241 108.468 45.8708 108.608 46.4723C108.747 47.0738 109.068 47.6181 109.526 48.0317C109.985 48.4452 110.559 48.7082 111.172 48.7851L118.658 49.7419C119.25 49.8169 119.807 50.0657 120.258 50.457C120.709 50.8482 121.034 51.3644 121.192 51.9402L123.192 59.2311C123.356 59.8259 123.698 60.3562 124.172 60.7508C124.646 61.1454 125.23 61.3853 125.845 61.4384C126.459 61.4914 127.076 61.355 127.61 61.0474C128.145 60.7399 128.573 60.276 128.836 59.7181L132.057 52.8593C132.313 52.3218 132.723 51.8722 133.234 51.5671C133.746 51.262 134.336 51.115 134.931 51.1446L142.475 51.4875C143.096 51.5264 143.714 51.3725 144.244 51.0469C144.774 50.7212 145.19 50.2398 145.436 49.6685C145.682 49.0972 145.745 48.4638 145.617 47.8551C145.489 47.2464 145.176 46.6921 144.721 46.2679L139.21 41.0895C138.775 40.6806 138.471 40.152 138.336 39.5703C138.201 38.9886 138.242 38.38 138.453 37.8213L141.121 30.7464C141.34 30.168 141.376 29.5363 141.224 28.9367C141.073 28.3371 140.741 27.7984 140.273 27.3934C139.806 26.9885 139.225 26.7367 138.61 26.6721C137.995 26.6075 137.375 26.7333 136.834 27.0324L130.205 30.6778C129.681 30.966 129.083 31.0925 128.488 31.0412C127.892 30.9899 127.325 30.7633 126.858 30.3898Z" fill="white"/>
<path d="M157.418 19.3376C157.569 18.7309 158.431 18.7309 158.582 19.3376L159.508 23.0547C159.562 23.2701 159.73 23.4383 159.945 23.4919L163.662 24.4178C164.269 24.5689 164.269 25.4311 163.662 25.5822L159.945 26.5081C159.73 26.5617 159.562 26.7299 159.508 26.9453L158.582 30.6624C158.431 31.2691 157.569 31.2691 157.418 30.6624L156.492 26.9453C156.438 26.7299 156.27 26.5617 156.055 26.5081L152.338 25.5822C151.731 25.4311 151.731 24.5689 152.338 24.4178L156.055 23.4919C156.27 23.4383 156.438 23.2701 156.492 23.0547L157.418 19.3376Z" fill="white"/>
<path d="M125.918 2.33755C126.069 1.7309 126.932 1.7309 127.083 2.33755L127.311 3.25266C127.364 3.46804 127.532 3.63622 127.748 3.68986L128.663 3.91779C129.27 4.06889 129.27 4.93111 128.663 5.08221L127.748 5.31014C127.532 5.36378 127.364 5.53196 127.311 5.74734L127.083 6.66245C126.932 7.2691 126.069 7.2691 125.918 6.66245L125.69 5.74734C125.637 5.53196 125.469 5.36378 125.253 5.31014L124.338 5.08221C123.731 4.93111 123.731 4.06889 124.338 3.91779L125.253 3.68986C125.469 3.63622 125.637 3.46804 125.69 3.25266L125.918 2.33755Z" fill="white"/>
<path d="M96.9178 42.3376C97.0689 41.7309 97.9311 41.7309 98.0822 42.3376L98.3101 43.2527C98.3638 43.468 98.532 43.6362 98.7473 43.6899L99.6624 43.9178C100.269 44.0689 100.269 44.9311 99.6624 45.0822L98.7473 45.3101C98.532 45.3638 98.3638 45.532 98.3101 45.7473L98.0822 46.6624C97.9311 47.2691 97.0689 47.2691 96.9178 46.6624L96.6899 45.7473C96.6362 45.532 96.468 45.3638 96.2527 45.3101L95.3376 45.0822C94.7309 44.9311 94.7309 44.0689 95.3376 43.9178L96.2527 43.6899C96.468 43.6362 96.6362 43.468 96.6899 43.2527L96.9178 42.3376Z" fill="white"/>
<path d="M162.211 86.0937C164.612 84.036 169.224 82.702 171.471 84.036C175.264 86.2891 174.331 90.6651 174.331 90.6651C174.331 90.6651 180.504 89.7048 180.428 96.0287C180.428 96.0287 185.397 98.2029 183.223 103.172C183.223 103.172 187.524 104.259 185.48 109.554C183.816 113.872 179.979 116.132 177.644 117.301C175.586 118.33 172.431 116.845 173.528 112.843C173.528 112.843 171.128 113.529 169.756 112.157C167.863 110.264 168.727 106.67 168.727 106.67C168.727 106.67 166.327 107.356 164.612 105.984C162.52 104.311 163.583 101.183 163.583 101.183C162.816 101.08 162.092 100.77 161.488 100.286C160.884 99.8032 160.423 99.1648 160.154 98.4395C158.782 95.0101 163.926 90.8948 163.926 90.8948L162.211 86.0937Z" fill="#FFD5BD"/>
<path d="M183.474 103.367C180.455 107.032 177.127 110.432 173.528 113.529" stroke="#A7756A" stroke-width="1.37176" stroke-miterlimit="10" stroke-linecap="round"/>
<path d="M180.387 95.9978C176.851 100.322 172.815 104.211 168.364 107.586" stroke="#A7756A" stroke-width="1.37176" stroke-miterlimit="10" stroke-linecap="round"/>
<path d="M174.9 90.9534C171.659 95.2115 167.759 98.9243 163.346 101.951" stroke="#A7756A" stroke-width="1.37176" stroke-miterlimit="10" stroke-linecap="round"/>
<path d="M166.498 87.9797C166.498 87.9797 163.285 90.6855 161.134 92.7809" stroke="#151414" stroke-width="1.37176" stroke-miterlimit="10" stroke-linecap="round"/>
</svg>
