<svg width="355" height="292" viewBox="0 0 355 292" fill="none" xmlns="http://www.w3.org/2000/svg">
<path d="M137.643 57.3142H142.951C155.017 57.3142 166.588 62.1036 175.12 70.6289C183.651 79.1541 188.444 90.7168 188.444 102.773V192.463H92.1499V102.773C92.1499 90.7168 96.9429 79.1541 105.475 70.6289C114.006 62.1036 125.578 57.3142 137.643 57.3142Z" fill="#FFB7D5"/>
<path d="M157.805 139.061V193.869H115.028V139.061H157.805ZM158.913 137.954H113.92V194.975H158.913V137.954Z" fill="#CA7358"/>
<path d="M158.913 137.954H113.92V149.743H158.913V137.954Z" fill="#CA7358"/>
<path d="M113.704 109.455V194.142H87.9356V109.455H113.704ZM114.812 108.348H86.8281V195.249H114.812V108.348Z" fill="#CA7358"/>
<path d="M193.126 92.321V193.858H159.128V92.321H193.126ZM194.233 91.2144H158.021V194.964H194.233V91.2144Z" fill="#CA7358"/>
<path d="M172.637 105.059H173.166C174.369 105.059 175.522 105.536 176.373 106.386C177.223 107.236 177.701 108.388 177.701 109.59V120.134H168.102V109.59C168.102 108.388 168.58 107.236 169.43 106.386C170.281 105.536 171.434 105.059 172.637 105.059Z" fill="#CA7358"/>
<path d="M167.006 113.281H178.801" stroke="#FFB7D5" stroke-width="4" stroke-linecap="round" stroke-linejoin="round"/>
<path d="M172.637 132.105H173.166C174.369 132.105 175.522 132.583 176.373 133.433C177.223 134.283 177.701 135.435 177.701 136.637V147.187H168.102V136.64C168.102 135.438 168.58 134.285 169.43 133.436C170.281 132.586 171.434 132.108 172.637 132.108V132.105Z" fill="#F5EBDD"/>
<path d="M167.006 140.331H178.801" stroke="#FFB7D5" stroke-width="4" stroke-linecap="round" stroke-linejoin="round"/>
<path d="M172.637 159.155H173.166C174.369 159.155 175.522 159.633 176.373 160.483C177.223 161.332 177.701 162.485 177.701 163.687V174.231H168.102V163.687C168.102 162.485 168.58 161.332 169.43 160.483C170.281 159.633 171.434 159.155 172.637 159.155Z" fill="#F5EBDD"/>
<path d="M167.006 167.378H178.801" stroke="#FFB7D5" stroke-width="4" stroke-linecap="round" stroke-linejoin="round"/>
<path d="M172.637 186.197H173.166C174.369 186.197 175.522 186.674 176.373 187.524C177.223 188.374 177.701 189.527 177.701 190.729V200.412H168.102V190.729C168.102 189.527 168.58 188.374 169.43 187.524C170.281 186.674 171.434 186.197 172.637 186.197Z" fill="#30242A"/>
<path d="M95.1124 127.469H95.6412C96.844 127.469 97.9976 127.946 98.8481 128.796C99.6986 129.646 100.176 130.799 100.176 132.001V142.544H90.5771V132.001C90.5771 130.799 91.055 129.646 91.9055 128.796C92.756 127.946 93.9095 127.469 95.1124 127.469Z" fill="#F5EBDD"/>
<path d="M89.4805 135.691H101.275" stroke="#FFB7D5" stroke-width="4" stroke-linecap="round" stroke-linejoin="round"/>
<path d="M95.1124 154.516H95.6412C96.844 154.516 97.9976 154.993 98.8481 155.843C99.6986 156.693 100.176 157.846 100.176 159.047V169.597H90.5771V159.05C90.5768 158.455 90.6938 157.865 90.9216 157.315C91.1493 156.765 91.4833 156.265 91.9045 155.844C92.3257 155.423 92.8258 155.089 93.3762 154.861C93.9266 154.633 94.5166 154.516 95.1124 154.516Z" fill="#F5EBDD"/>
<path d="M89.4805 162.741H101.275" stroke="#FFB7D5" stroke-width="4" stroke-linecap="round" stroke-linejoin="round"/>
<path d="M95.1124 181.565H95.6412C96.844 181.565 97.9976 182.043 98.8481 182.893C99.6986 183.742 100.176 184.895 100.176 186.097V196.641H90.5771V186.097C90.5771 184.895 91.055 183.742 91.9055 182.893C92.756 182.043 93.9095 181.565 95.1124 181.565Z" fill="#CA7358"/>
<path d="M89.4805 189.788H101.275" stroke="#FFB7D5" stroke-width="4" stroke-linecap="round" stroke-linejoin="round"/>
<path d="M194.233 91.2144H158.021V95.7378H194.233V91.2144Z" fill="#CA7358"/>
<path d="M114.812 106.154H86.8281V110.678H114.812V106.154Z" fill="#CA7358"/>
<path d="M131.616 160.434H122.014V172.77H131.616V160.434Z" fill="#F5EBDD"/>
<path d="M120.915 165.917H132.712" stroke="#FFB7D5" stroke-width="4" stroke-linecap="round" stroke-linejoin="round"/>
<path d="M126.814 173.318V165.917" stroke="#FFB7D5" stroke-width="4" stroke-linecap="round" stroke-linejoin="round"/>
<path d="M131.616 182.713H122.014V195.05H131.616V182.713Z" fill="#CA7358"/>
<path d="M120.915 188.194H132.712" stroke="#FFB7D5" stroke-width="4" stroke-linecap="round" stroke-linejoin="round"/>
<path d="M126.814 195.598V188.194" stroke="#FFB7D5" stroke-width="4" stroke-linecap="round" stroke-linejoin="round"/>
<path d="M149.72 160.434H140.118V172.77H149.72V160.434Z" fill="#30242A"/>
<path d="M139.022 165.917H150.82" stroke="#FFB7D5" stroke-width="4" stroke-linecap="round" stroke-linejoin="round"/>
<path d="M144.919 173.318V165.917" stroke="#FFB7D5" stroke-width="4" stroke-linecap="round" stroke-linejoin="round"/>
<path d="M149.72 182.713H140.118V195.05H149.72V182.713Z" fill="#F5EBDD"/>
<path d="M139.022 188.194H150.82" stroke="#FFB7D5" stroke-width="4" stroke-linecap="round" stroke-linejoin="round"/>
<path d="M144.919 195.598V188.194" stroke="#FFB7D5" stroke-width="4" stroke-linecap="round" stroke-linejoin="round"/>
<path d="M120.297 90.802C124.236 90.802 127.429 87.6111 127.429 83.675C127.429 79.7389 124.236 76.5481 120.297 76.5481C116.358 76.5481 113.165 79.7389 113.165 83.675C113.165 87.6111 116.358 90.802 120.297 90.802Z" fill="#F5EBDD"/>
<path d="M200.79 192.508H79.8042V200.733H200.79V192.508Z" fill="#F5EBDD"/>
<path d="M142.209 49.1333H138.385C108.314 49.1333 83.9209 73.5021 83.9209 103.559V200.733H196.676V103.559C196.676 73.5021 172.288 49.1333 142.209 49.1333ZM136.181 192.507H92.1579V123.974H136.181V192.507ZM136.181 115.749H92.1579V103.839C92.1578 91.9423 96.7226 80.4989 104.912 71.8645C113.102 63.2302 124.293 58.0623 136.181 57.425V115.749ZM188.444 192.507H144.421V123.974H188.444V192.507ZM188.444 115.749H144.421V57.425C156.309 58.0623 167.5 63.2302 175.69 71.8645C183.879 80.4989 188.444 91.9423 188.444 103.839V115.749Z" fill="#F5EBDD"/>
<path d="M169.267 185.284C169.267 185.284 150.257 139.689 149.427 127.803C146.636 87.8001 190.066 110.589 196.858 114.523C201.803 117.39 221.195 128.232 225.066 132.097C227.558 134.587 225.825 136.433 225.825 136.433C225.825 136.433 228.735 140.251 224.642 140.704C227.552 144.522 222.912 145.04 222.912 145.04C222.912 145.04 224.155 148.766 219.335 147.646C214.141 146.437 174.758 129.402 174.758 129.402C174.758 129.402 183.557 157.16 186.304 165.942L169.267 185.284Z" fill="#A15842"/>
<path d="M211.721 144.467C212.657 144.282 213.288 143.742 213.105 142.583C212.51 138.776 206.145 135.179 206.145 135.179C206.145 135.179 208.697 129.04 203.686 124.298" stroke="#30242A" stroke-width="4" stroke-miterlimit="10" stroke-linecap="round"/>
<path d="M222.849 144.843C220.564 143.507 212.192 138.613 210.207 137.595" stroke="#30242A" stroke-width="4" stroke-miterlimit="10" stroke-linecap="round"/>
<path d="M224.72 140.58C221.863 138.87 214.902 134.54 212.028 133.035" stroke="#30242A" stroke-width="4" stroke-miterlimit="10" stroke-linecap="round"/>
<path d="M225.759 135.904C222.159 133.519 215.37 129.101 212.685 127.745" stroke="#30242A" stroke-width="4" stroke-miterlimit="10" stroke-linecap="round"/>
<path d="M209.885 137.069C210.843 135.337 212.482 131.895 212.571 126.379" stroke="#30242A" stroke-width="4" stroke-miterlimit="10" stroke-linecap="round"/>
<path d="M174.653 130.05L168.168 127.106" stroke="#30242A" stroke-width="4" stroke-linecap="round" stroke-linejoin="round"/>
<path d="M75.856 259.425V264.756H121.986V259.425H75.856Z" fill="#A15842"/>
<path d="M129.583 287.083L118.157 218.567H125.156C125.905 218.567 126.623 218.269 127.153 217.74C127.683 217.211 127.98 216.493 127.98 215.745C127.98 214.996 127.683 214.278 127.153 213.749C126.623 213.22 125.905 212.923 125.156 212.923H72.7519C72.0029 212.923 71.2846 213.22 70.755 213.749C70.2253 214.278 69.9278 214.996 69.9278 215.745C69.9278 216.493 70.2253 217.211 70.755 217.74C71.2846 218.269 72.0029 218.567 72.7519 218.567H79.6738L68.2472 287.078C68.1891 287.417 68.206 287.766 68.2967 288.098C68.3874 288.431 68.5497 288.74 68.7722 289.003C68.9948 289.267 69.2722 289.479 69.5851 289.624C69.8981 289.769 70.239 289.844 70.584 289.844C71.1252 289.844 71.65 289.659 72.0715 289.32C72.493 288.981 72.7859 288.508 72.9014 287.979L88.0492 218.567H109.792L124.926 287.977C125.041 288.505 125.333 288.978 125.754 289.318C126.175 289.657 126.7 289.842 127.241 289.841C127.586 289.842 127.926 289.768 128.239 289.623C128.552 289.479 128.83 289.268 129.053 289.005C129.276 288.743 129.439 288.435 129.53 288.103C129.622 287.771 129.64 287.423 129.583 287.083Z" fill="#FFBE21"/>
<path d="M125.156 218.567C125.905 218.567 126.623 218.269 127.153 217.74C127.683 217.211 127.98 216.493 127.98 215.745C127.98 214.996 127.683 214.278 127.153 213.749C126.623 213.22 125.905 212.923 125.156 212.923H72.7519C72.0029 212.923 71.2845 213.22 70.7549 213.749C70.2253 214.278 69.9277 214.996 69.9277 215.745C69.9277 216.493 70.2253 217.211 70.7549 217.74C71.2845 218.269 72.0029 218.567 72.7519 218.567H79.6737L79.6599 218.652H88.0188L88.0381 218.567H109.781L109.801 218.652H118.17L118.157 218.567H125.156Z" fill="#A15842"/>
<path d="M103.313 284.9H38.2256L25.9517 247.157C25.0408 244.358 26.5747 242.089 29.3739 242.089H84.3197C87.1217 242.089 90.1341 244.358 91.0395 247.157L103.313 284.9Z" fill="#FFB7D5"/>
<path d="M144.308 284.9H80.3079C80.4919 285.467 80.5389 286.07 80.4451 286.659C80.3514 287.247 80.1195 287.806 79.7684 288.288C79.4173 288.77 78.957 289.162 78.4252 289.432C77.8933 289.702 77.3051 289.842 76.7085 289.842H140.708C141.305 289.843 141.894 289.703 142.426 289.433C142.958 289.163 143.418 288.771 143.77 288.289C144.121 287.807 144.353 287.248 144.446 286.659C144.54 286.07 144.492 285.467 144.308 284.9Z" fill="#FFB7D5"/>
<path d="M80.3076 284.9H38.2891L38.7791 286.411C39.1031 287.408 39.7346 288.277 40.5831 288.893C41.4316 289.509 42.4536 289.841 43.5026 289.842H76.7276C77.3226 289.839 77.9085 289.697 78.4379 289.425C78.9672 289.154 79.4249 288.761 79.7738 288.28C80.1227 287.798 80.3529 287.241 80.4457 286.654C80.5384 286.067 80.4911 285.466 80.3076 284.9Z" fill="#CA7358"/>
<path d="M98.878 284.9H43.2233L31.6084 249.224H87.2631L98.878 284.9Z" fill="#F5EBDD"/>
<path d="M78.0569 277.818H60.9128C59.0079 277.818 56.9646 276.274 56.3444 274.373L52.2106 261.646C51.5932 259.746 52.6342 258.202 54.5391 258.202H71.6832C73.5854 258.202 75.6287 259.746 76.2489 261.646L80.3826 274.373C81.0001 276.274 79.959 277.818 78.0569 277.818Z" fill="#3EC1F3"/>
<path d="M38.541 284.353H102.776" stroke="#CA7358" stroke-width="4" stroke-miterlimit="10" stroke-linecap="round"/>
<path d="M76.1461 261.038L69.3849 268.253C68.0752 269.637 65.5806 269.637 63.3628 268.253L52.1992 261.22" stroke="#F5EBDD" stroke-width="4" stroke-miterlimit="10" stroke-linecap="round"/>
<path d="M69.6509 268.043L80.3106 274.758" stroke="#F5EBDD" stroke-width="4" stroke-miterlimit="10" stroke-linecap="round"/>
<path d="M56.5161 274.921L62.8898 268.118" stroke="#F5EBDD" stroke-width="4" stroke-miterlimit="10" stroke-linecap="round"/>
<path d="M76.8028 263.154C74.6709 263.154 72.3728 261.411 71.6695 259.281C71.3428 258.274 71.4287 257.344 71.9132 256.683C72.359 256.074 73.1093 255.737 74.0285 255.737C76.1605 255.737 78.4585 257.48 79.159 259.624C79.4885 260.631 79.4027 261.561 78.9154 262.219C78.4724 262.817 77.722 263.154 76.8028 263.154Z" fill="#4756DF"/>
<path d="M74.0284 256.276C75.9056 256.276 78.0154 257.881 78.6329 259.779C78.9097 260.609 78.846 261.361 78.4695 261.882C78.2695 262.125 78.0146 262.316 77.7257 262.442C77.4369 262.567 77.1224 262.621 76.8083 262.601C74.9283 262.601 72.8213 260.996 72.2038 259.096C71.927 258.266 71.9906 257.516 72.3672 256.996C72.705 256.531 73.2947 256.276 74.0284 256.276ZM74.0284 255.17C71.6695 255.17 70.3765 257.081 71.1434 259.439C71.9103 261.796 74.4437 263.708 76.8027 263.708C79.1617 263.708 80.4547 261.796 79.6877 259.439C78.9208 257.081 76.3874 255.17 74.0284 255.17Z" fill="#F5EBDD"/>
<path d="M301.875 160.312H301.805C301.312 161.203 298.065 166.65 292.358 166.65C286.652 166.65 283.404 161.203 282.909 160.312H282.842L273.96 200.376H310.757L301.875 160.312Z" fill="#3EC1F3"/>
<path d="M278.168 181.623C285.704 182.412 297.408 189.138 301.475 200.26" stroke="#F5EBDD" stroke-width="4" stroke-miterlimit="10" stroke-linecap="round"/>
<path d="M283.052 200.583C283.897 191.522 291.082 176.547 304.012 171.863" stroke="#F5EBDD" stroke-width="4" stroke-miterlimit="10" stroke-linecap="round"/>
<path d="M292.222 163.698C289.046 167.043 285.043 170.158 280.513 172.25" stroke="#F5EBDD" stroke-width="4" stroke-miterlimit="10" stroke-linecap="round"/>
<path d="M292.358 166.65C298.064 166.65 301.312 161.203 301.805 160.312H282.908C283.404 161.203 286.649 166.65 292.358 166.65Z" fill="#30242A"/>
<path d="M240.51 289.842C240.125 289.842 239.746 289.75 239.403 289.576C239.06 289.401 238.764 289.147 238.538 288.835C238.313 288.524 238.164 288.163 238.105 287.783C238.046 287.403 238.078 287.014 238.198 286.649L245.835 263.431C245.996 262.947 246.307 262.525 246.722 262.227C247.137 261.929 247.635 261.77 248.146 261.771H253.49C253.915 261.771 254.332 261.881 254.701 262.092C255.069 262.302 255.376 262.606 255.591 262.972C255.806 263.337 255.921 263.753 255.926 264.177C255.93 264.602 255.824 265.02 255.617 265.39L242.637 288.608C242.423 288.983 242.114 289.295 241.74 289.512C241.367 289.729 240.942 289.842 240.51 289.842Z" fill="#A15842"/>
<path d="M342.669 289.842C343.054 289.842 343.433 289.75 343.776 289.576C344.119 289.401 344.415 289.147 344.641 288.835C344.866 288.524 345.015 288.163 345.074 287.783C345.133 287.403 345.101 287.014 344.981 286.649L337.344 263.431C337.182 262.947 336.872 262.526 336.457 262.228C336.042 261.93 335.543 261.77 335.033 261.771H329.686C329.262 261.771 328.845 261.882 328.477 262.093C328.109 262.304 327.802 262.607 327.587 262.973C327.373 263.339 327.257 263.754 327.253 264.178C327.249 264.602 327.355 265.02 327.562 265.39L340.542 288.608C340.755 288.983 341.065 289.295 341.438 289.512C341.812 289.729 342.237 289.843 342.669 289.842Z" fill="#A15842"/>
<path d="M354.456 199.922H229.153V271.601H354.456V199.922Z" fill="#FFB7D5"/>
<path d="M345.025 209.16V262.357H238.584V209.16H345.025ZM346.133 208.053H237.476V263.464H346.133V208.053Z" fill="#CA7358"/>
<path d="M291.688 207.954V263.569" stroke="#CA7358" stroke-width="4" stroke-miterlimit="10"/>
<path d="M304.28 238.985C306.062 238.985 307.506 237.542 307.506 235.761C307.506 233.981 306.062 232.538 304.28 232.538C302.499 232.538 301.055 233.981 301.055 235.761C301.055 237.542 302.499 238.985 304.28 238.985Z" fill="#30242A"/>
<path d="M279.328 238.985C281.11 238.985 282.554 237.542 282.554 235.761C282.554 233.981 281.11 232.538 279.328 232.538C277.547 232.538 276.103 233.981 276.103 235.761C276.103 237.542 277.547 238.985 279.328 238.985Z" fill="#30242A"/>
<path d="M107.073 178.505C109.223 178.505 111.284 179.359 112.804 180.877C114.324 182.396 115.177 184.456 115.177 186.603V213H98.9692V186.603C98.9692 184.456 99.8231 182.396 101.343 180.877C102.863 179.359 104.924 178.505 107.073 178.505Z" fill="#4756DF"/>
<path d="M115.18 188.85H98.9692V203.942H115.18V188.85Z" fill="#3EC1F3"/>
<path d="M110.675 174.306H103.471V179.405H110.675V174.306Z" fill="#30242A"/>
<path d="M206.205 131.494C211.741 131.494 216.228 127.01 216.228 121.479C216.228 115.947 211.741 111.463 206.205 111.463C200.67 111.463 196.183 115.947 196.183 121.479C196.183 127.01 200.67 131.494 206.205 131.494Z" fill="#30242A"/>
<path d="M198.423 127.671C199.223 128.033 192.437 112.177 189.037 114.689C185.839 117.044 194.375 125.831 198.423 127.671Z" fill="#FFBE21"/>
<path d="M197.562 127.64C198.226 128.47 214.244 123.213 212.103 119.954C210.049 116.828 196.897 126.816 197.562 127.64Z" fill="#FFBE21"/>
<path d="M217.192 116.128C220.757 116.128 223.646 113.241 223.646 109.679C223.646 106.117 220.757 103.23 217.192 103.23C213.628 103.23 210.738 106.117 210.738 109.679C210.738 113.241 213.628 116.128 217.192 116.128Z" fill="#30242A"/>
<path d="M173.113 223.978H206.07L207.809 215.745H168.099L173.113 223.978Z" fill="#CA7358"/>
<path d="M172.826 196.81C172.826 196.81 179.556 188.028 192.187 187.204L200.574 169.201C198.334 168.844 196.72 168.617 196.72 168.617C197.052 167.815 198.182 165.159 199.547 161.883C197.077 160.243 193.043 157.017 192.11 152.947C195.072 152.501 200.97 149.707 198.641 144.818C195.79 138.823 188.242 143.435 188.242 143.435C185.951 140.838 184.487 137.616 184.039 134.183C183.123 134.277 180.498 133.998 178.634 132.991L178.51 132.919C177.513 134.875 176.618 136.882 175.83 138.931C175.622 139.457 175.423 139.966 175.212 140.45C175.212 140.45 172.607 140.007 172.072 141.083C171.411 142.411 173.393 144.127 173.393 144.127C171.809 147.104 170.406 149.541 170.915 152.629C171.364 155.354 173.936 158.666 179.997 159.219L176.951 168.822L165.599 188.518C167.825 189.821 170.815 192.303 172.826 196.81Z" fill="#CA7358"/>
<path d="M253.031 158.253C249.456 153.796 236.695 135.597 232.434 132.183C229.687 129.986 228.04 131.906 228.04 131.906C228.04 131.906 223.92 129.436 223.92 133.553C219.8 131.082 219.8 135.746 219.8 135.746C219.8 135.746 215.954 134.916 217.605 139.589C219.379 144.614 239.301 180.879 239.301 180.879C239.301 180.879 218.701 173.196 210.738 171.149C209.276 170.772 207.485 170.402 205.677 170.064C204.511 172.792 202.689 177.258 199.752 184.728C195.765 194.84 197.703 204.949 209.24 208.961L211.286 199.277C211.286 199.277 232.606 207.284 244.511 206.96C284.888 205.865 257.976 164.426 253.031 158.253Z" fill="#CA7358"/>
<path d="M184.039 134.183C184.486 137.627 185.953 140.857 188.253 143.46C188.253 143.46 195.801 138.834 198.653 144.843C200.981 149.732 195.084 152.526 192.121 152.972C193.054 157.042 197.088 160.268 199.558 161.908C201.585 157.042 204.126 150.803 205.322 147.245C207.092 141.972 208.005 133.799 200.062 127.895C192.628 122.381 184.108 126.038 182.187 127.958C181.046 129.098 179.972 130.172 178.521 132.938L178.646 133.01C180.498 133.987 183.123 134.266 184.039 134.183Z" fill="#30242A"/>
<path d="M199.752 184.736C202.69 177.283 204.511 172.806 205.677 170.073C203.894 169.738 202.097 169.436 200.585 169.196L192.207 187.204C179.576 188.034 172.845 196.81 172.845 196.81C170.824 192.303 167.834 189.821 165.621 188.51L163.091 192.9C161.799 195.213 161.143 197.826 161.192 200.474C161.241 203.122 161.991 205.71 163.368 207.973L168.097 215.739H207.809L209.24 208.964C197.703 204.957 195.765 194.848 199.752 184.736Z" fill="#FFBE21"/>
<path d="M180.168 159.786C181.892 159.777 183.605 159.524 185.257 159.034" stroke="#30242A" stroke-width="4" stroke-miterlimit="10" stroke-linecap="round"/>
<path d="M220.595 145.209C220.797 144.506 221.295 144.049 222.273 144.118C226.118 144.395 230.236 150.432 230.236 150.432C230.236 150.432 236.147 147.389 241.294 151.968" stroke="#30242A" stroke-width="4" stroke-miterlimit="10" stroke-linecap="round"/>
<path d="M220.359 135.597C222.508 138.981 226.5 145.281 227.489 146.863" stroke="#30242A" stroke-width="4" stroke-miterlimit="10" stroke-linecap="round"/>
<path d="M224.324 133.248C226.539 136.507 230.415 142.068 231.886 144.395" stroke="#30242A" stroke-width="4" stroke-miterlimit="10" stroke-linecap="round"/>
<path d="M228.66 131.97C231.429 135.5 235.671 140.978 237.102 143.313" stroke="#30242A" stroke-width="4" stroke-miterlimit="10" stroke-linecap="round"/>
<path d="M228.04 146.863C229.701 145.756 232.982 143.844 238.475 143.297" stroke="#30242A" stroke-width="4" stroke-miterlimit="10" stroke-linecap="round"/>
<path d="M196.656 168.031L191.789 167.447" stroke="#30242A" stroke-width="4" stroke-miterlimit="10" stroke-linecap="round"/>
<path d="M179.429 221.234L179.155 220.686" stroke="#30242A" stroke-width="4" stroke-miterlimit="10" stroke-linecap="round"/>
<path d="M211.015 199.809L208.266 198.73" stroke="#30242A" stroke-width="4" stroke-miterlimit="10" stroke-linecap="round"/>
<path d="M245.616 182.813L239.373 180.362" stroke="#30242A" stroke-width="4" stroke-miterlimit="10" stroke-linecap="round"/>
<path d="M207.809 215.745H168.099" stroke="#30242A" stroke-width="4" stroke-linecap="round" stroke-linejoin="round"/>
<path d="M191.789 187.204L187.777 196.157C187.175 197.497 186.197 198.635 184.963 199.434C183.729 200.233 182.289 200.658 180.819 200.658H161.161" stroke="#30242A" stroke-width="4" stroke-linecap="round" stroke-linejoin="round"/>
<path d="M174.894 147.463C175.367 147.87 177.289 148.423 178.316 147.037" stroke="#30242A" stroke-width="4" stroke-miterlimit="10" stroke-linecap="round"/>
<path d="M194.402 146.603L190.925 147.95" stroke="#A15842" stroke-width="4" stroke-miterlimit="10" stroke-linecap="round"/>
<path d="M181.431 141.166C181.166 141.232 180.891 141.244 180.621 141.199C180.352 141.155 180.095 141.055 179.865 140.908C179.636 140.76 179.439 140.567 179.288 140.34C179.136 140.113 179.032 139.858 178.983 139.589" stroke="#30242A" stroke-width="4" stroke-linecap="round" stroke-linejoin="round"/>
<path d="M190.773 151.503L189.516 156.635C189.449 156.9 189.451 157.179 189.523 157.443C189.595 157.707 189.734 157.948 189.927 158.143C190.12 158.338 190.36 158.48 190.623 158.555C190.887 158.63 191.165 158.636 191.432 158.572L196.125 157.465C196.39 157.401 196.634 157.269 196.833 157.084C197.033 156.898 197.182 156.665 197.265 156.405C197.348 156.146 197.364 155.87 197.309 155.603C197.255 155.336 197.133 155.087 196.955 154.881L193.519 150.866C193.33 150.646 193.084 150.483 192.808 150.392C192.532 150.302 192.237 150.289 191.954 150.355C191.671 150.42 191.411 150.562 191.203 150.764C190.995 150.967 190.846 151.222 190.773 151.503Z" fill="#F4E6D8"/>
<path d="M201.344 270.752C198.597 267.456 189.042 255.535 189.042 255.535" stroke="#30242A" stroke-width="4" stroke-linecap="round" stroke-linejoin="round"/>
<path d="M275.546 244.02C274.538 241.298 272.689 236.735 270.407 231.257L245.92 238.398L243.113 239.283C244.375 247.442 245.345 251.421 245.345 251.421C245.345 251.421 218.98 227.271 206.073 223.978H173.102L161.842 289.842H260.16C288.185 289.842 280.22 256.636 275.546 244.02Z" fill="#4856DF"/>
<path d="M248.886 181.076C248.567 180.317 247.995 179.692 247.267 179.307C246.539 178.922 245.7 178.801 244.893 178.965C240.012 180.055 239.633 189.29 238.475 194.613C236.554 203.397 232.434 206.689 232.16 212.452C231.883 217.986 240.674 220.135 240.674 220.135C240.973 223.033 241.276 225.723 241.585 228.206L266.055 220.896C259.343 205.087 251.394 186.825 248.886 181.076Z" fill="#A15842"/>
<path d="M243.099 239.22V239.284L245.907 238.398L243.099 239.22Z" fill="#A15842"/>
<path d="M270.413 231.249C270.341 231.08 270.272 230.909 270.2 230.737L245.92 238.398L270.413 231.249Z" fill="#3EC1F3"/>
<path d="M270.2 230.74C268.924 227.68 267.517 224.346 266.047 220.899L241.577 228.208C242.1 232.48 242.618 236.146 243.091 239.223L245.91 238.393L270.2 230.74Z" fill="#3EC1F3"/>
<path d="M196.011 223.893C204.788 233.092 250.173 279.724 264.291 275.021C274.599 271.587 259.421 237.759 257.975 233.308" stroke="#3EC1F3" stroke-width="4" stroke-linecap="round" stroke-linejoin="round"/>
<path d="M257.272 261.339C254.091 258.49 248.412 253.407 245.395 250.724" stroke="#30242A" stroke-width="4" stroke-linecap="round" stroke-linejoin="round"/>
<path d="M239.575 213.825L240.112 219.56" stroke="#30242A" stroke-width="4" stroke-linecap="round" stroke-linejoin="round"/>
<path d="M246.475 179.451L247.516 182.367" stroke="#30242A" stroke-width="4" stroke-linecap="round" stroke-linejoin="round"/>
<path d="M243.982 179.728L245.666 183.864" stroke="#30242A" stroke-width="4" stroke-linecap="round" stroke-linejoin="round"/>
<path d="M180.171 260.576L180.016 260.529L185.745 223.923H173.102C173.102 223.923 122.581 243.19 111.046 261.574C100.143 278.952 120.109 289.841 125.876 289.841H176.176L180.171 260.576Z" fill="#4856DF"/>
<path d="M233.256 289.841C239.849 289.841 237.653 282.429 232.98 279.962C228.306 277.494 222.818 275.02 217.051 267.337C211.284 259.654 204.417 261.574 200.023 267.061C200.023 267.061 196.673 265.857 191.75 264.225L187.896 289.839L233.256 289.841Z" fill="#CA7358"/>
<path d="M180.653 260.72L180.171 260.576L176.176 289.841H187.899L191.753 264.217C188.552 263.168 184.69 261.926 180.653 260.72Z" fill="#3EC1F3"/>
<path d="M230.235 286.823L234.292 289.288" stroke="#30242A" stroke-width="4" stroke-linecap="round" stroke-linejoin="round"/>
<path d="M153.065 254.165C164.6 256.359 169.589 257.762 180.024 261.082" stroke="#30242A" stroke-width="4" stroke-linecap="round" stroke-linejoin="round"/>
<path d="M226.941 288.195L229.308 289.565" stroke="#30242A" stroke-width="4" stroke-linecap="round" stroke-linejoin="round"/>
<path d="M200.577 266.72L204.42 268.162" stroke="#30242A" stroke-width="4" stroke-linecap="round" stroke-linejoin="round"/>
<path d="M293.23 163.305C293.817 159.841 296.486 146.102 303.018 138.668" stroke="#30242A" stroke-width="4" stroke-miterlimit="10" stroke-linecap="round"/>
<path d="M307.036 150.652C312.739 148.188 316.913 145.152 316.358 143.87C315.803 142.588 310.731 143.546 305.028 146.01C299.325 148.473 295.152 151.51 295.706 152.792C296.261 154.073 301.334 153.116 307.036 150.652Z" fill="#30242A"/>
<path d="M307.605 114.791C309.667 112.043 310.561 109.233 309.601 108.514C308.642 107.795 306.193 109.441 304.131 112.189C302.069 114.937 301.175 117.748 302.134 118.466C303.093 119.185 305.543 117.54 307.605 114.791Z" fill="#30242A"/>
<path d="M318.739 133.32C318.337 132.014 315.735 131.594 312.44 132.144C314.851 128.888 315.848 125.709 314.655 124.705C313.461 123.7 310.502 125.217 307.689 128.135C307.689 124.799 306.827 122.303 305.474 122.129C303.746 121.905 301.852 125.543 301.243 130.252C301.063 131.597 301.013 132.956 301.093 134.311C301.89 134.061 302.737 134.014 303.557 134.175C304.377 134.335 305.143 134.698 305.788 135.229C306.432 135.761 306.933 136.444 307.245 137.218C307.558 137.992 307.672 138.832 307.578 139.661C308.885 139.511 310.175 139.239 311.432 138.851C315.97 137.462 319.243 134.986 318.739 133.32Z" fill="#FFBE21"/>
<path d="M305.822 135.262C305.178 134.718 304.405 134.345 303.578 134.179C302.75 134.012 301.893 134.058 301.088 134.311C301.235 136.554 301.791 138.275 302.641 138.917C303.43 139.661 305.274 139.919 307.572 139.661C307.666 138.841 307.555 138.01 307.249 137.243C306.944 136.475 306.454 135.795 305.822 135.262Z" fill="#30242A"/>
<path d="M291.419 162.865C291.228 158.931 290.085 139.625 285.799 128.224" stroke="#30242A" stroke-width="4" stroke-miterlimit="10" stroke-linecap="round"/>
<path d="M277.285 151.793C284.649 150.39 290.419 148.199 290.171 146.9C289.923 145.6 283.752 145.683 276.387 147.086C269.022 148.488 263.253 150.679 263.501 151.979C263.749 153.278 269.92 153.195 277.285 151.793Z" fill="#30242A"/>
<path d="M288.941 111.807C287.607 111.513 285.965 113.577 284.827 116.715C283.166 113.018 280.884 110.592 279.428 111.134C277.972 111.676 277.831 115.008 279.002 118.881C276.086 117.254 273.495 116.77 272.678 117.866C271.634 119.249 273.877 122.693 277.687 125.535C278.772 126.351 279.933 127.061 281.153 127.657C281.326 126.84 281.701 126.08 282.242 125.444C282.784 124.809 283.476 124.319 284.256 124.019C285.035 123.718 285.877 123.617 286.706 123.724C287.534 123.832 288.323 124.144 289 124.633C289.507 123.42 289.903 122.163 290.182 120.878C291.198 116.241 290.644 112.18 288.941 111.807Z" fill="#FFBE21"/>
<path d="M284.306 124.002C283.515 124.296 282.81 124.786 282.259 125.426C281.707 126.065 281.327 126.834 281.153 127.66C283.182 128.631 284.954 128.99 285.932 128.567C286.967 128.241 288.097 126.76 288.999 124.636C288.33 124.152 287.551 123.841 286.733 123.73C285.914 123.62 285.08 123.713 284.306 124.002Z" fill="#30242A"/>
<path d="M271.529 132.368V132.385C272.623 133.003 273.446 134.009 273.834 135.203C274.222 136.398 274.147 137.695 273.625 138.837C273.101 139.978 272.169 140.881 271.012 141.369C269.854 141.857 268.556 141.894 267.373 141.473V141.493C273.57 144.323 279.525 144.572 280.663 142.046C281.801 139.52 277.725 135.196 271.529 132.368Z" fill="#FFBE21"/>
<path d="M272.027 140.787C271.492 140.488 271.09 139.999 270.9 139.417C270.711 138.834 270.748 138.202 271.004 137.646C271.26 137.09 271.716 136.65 272.282 136.415C272.848 136.18 273.481 136.166 274.056 136.377C273.994 135.555 273.73 134.761 273.288 134.064C272.846 133.368 272.238 132.791 271.52 132.385L267.367 141.474C268.141 141.749 268.97 141.831 269.783 141.712C270.595 141.592 271.366 141.275 272.027 140.787Z" fill="#F5EBDD"/>
<path d="M271.003 137.653C270.749 138.208 270.713 138.839 270.903 139.42C271.093 140 271.494 140.489 272.027 140.787C272.712 140.285 273.258 139.616 273.613 138.845C273.968 138.073 274.121 137.224 274.057 136.377C273.48 136.167 272.846 136.182 272.28 136.418C271.714 136.655 271.258 137.095 271.003 137.653Z" fill="#30242A"/>
</svg>
