<svg width="295" height="235" viewBox="0 0 295 235" fill="none" xmlns="http://www.w3.org/2000/svg">
<path d="M205.379 206.197C205.379 206.197 160.777 210.092 148.978 195.892C137.179 181.692 147.179 159.777 160.191 151.01C169.226 144.926 176.149 138.282 180.868 133.605C186.801 127.73 191.207 123.367 193.046 115.277C196.696 99.175 189.447 93.7057 179.93 87.5568C166.41 78.8285 132.71 94.2654 106.317 107.648C79.9234 121.03 39.7759 195.892 39.7759 195.892" stroke="#282E30" stroke-width="4.61812" stroke-miterlimit="10"/>
<path d="M29.4113 209.858C29.462 209.151 42.8823 186.694 42.8823 186.694L48.079 187.538L35.5665 209.06L29.4113 209.858Z" fill="#282E30"/>
<path d="M12.9381 214.758L55.5547 215.955L54.9687 213.02C54.3457 209.877 50.1318 207.654 46.9001 207.596L21.1462 207.075C18.3304 207.02 15.7375 208.652 14.5664 211.209L12.9381 214.758Z" fill="#282E30"/>
<path d="M14.0358 212.354L55.1752 213.597L54.5893 210.662C53.9663 207.519 51.2295 205.25 47.9978 205.192L22.2438 204.671C19.428 204.616 16.8351 206.248 15.6641 208.805L14.0358 212.354Z" fill="#99E7FF"/>
<path d="M203.671 210.691L215.992 209.649L215.262 201.09L202.928 202.119L203.671 210.691Z" fill="#1A1E21"/>
<path d="M257.986 213.153L220.385 216.293C213.201 216.892 207.413 210.6 208.743 203.63L212.458 184.115C213.736 177.445 219.368 172.43 226.252 171.856L266.213 168.508C274.661 167.805 282.106 173.967 282.823 182.278L285.3 210.873L257.986 213.153Z" fill="#99E7FF"/>
<path d="M211.468 189.339L263.737 184.975" stroke="white" stroke-width="2.63895" stroke-miterlimit="10"/>
<path d="M249.447 201.481C248.378 189.144 257.687 178.305 270.229 177.25C282.771 176.195 293.801 185.353 294.87 197.677C295.261 202.223 294.245 206.561 292.172 210.287L254.271 213.453C251.585 210.131 249.838 206.027 249.447 201.481Z" fill="#D3E5FF"/>
<path d="M255.092 201.012C255.9 210.274 264.179 217.153 273.606 216.358C283.032 215.563 290.02 207.421 289.225 198.146C288.416 188.883 280.137 182.005 270.711 182.8C261.272 183.594 254.284 191.749 255.092 201.012Z" fill="#3C4149"/>
<path d="M265.053 200.178C265.392 204.034 268.834 206.887 272.758 206.561C276.682 206.236 279.59 202.836 279.251 198.992C278.912 195.136 275.47 192.283 271.546 192.609C267.634 192.935 264.727 196.322 265.053 200.178Z" fill="#1A1E21"/>
<path d="M200.675 131.306C198.165 131.306 196.13 129.271 196.13 126.762C196.13 124.252 198.165 122.218 200.675 122.218C203.184 122.218 205.219 124.252 205.219 126.762C205.219 129.271 203.184 131.306 200.675 131.306Z" fill="#F5EBDD"/>
<path d="M200.674 121.729V125.411" stroke="#A7756A" stroke-width="1.36812" stroke-miterlimit="10" stroke-linecap="round"/>
<path d="M180.967 13.1854C185.496 16.097 182.439 22.2712 178.266 22.5153C176.665 26.2523 176.49 30.4465 177.773 34.3042H171.416L171.393 31.6265C165.58 33.0735 163.439 30.7899 162.312 28.7276C161.041 26.3882 161.417 24.1987 161.852 21.3532C161.852 21.3532 159.774 20.5268 159.932 19.2731C160.059 18.256 162.274 17.8821 162.274 17.8821C162.307 17.4346 162.33 16.9718 162.343 16.4912C162.365 15.2155 162.459 13.9421 162.622 12.6768C167.505 15.2782 173.585 16.6285 173.585 16.6285C173.585 16.6285 177.529 10.9731 180.967 13.1854Z" fill="#FFD9CE"/>
<path d="M105.29 105.729C102.628 106.747 100.665 105.03 101.155 104.046C101.476 103.405 110.689 96.4936 120.197 89.4701L131.088 103.052C128.588 104.01 126.94 104.552 126.94 104.552C126.94 104.552 124.24 108.725 120.309 111.181C120.309 111.181 116.136 121.249 113.926 121.005C112.441 120.839 114.417 115.11 114.907 112.654C114.907 112.654 109.994 121.005 106.803 121.005C106.066 121.005 105.387 120.496 105.331 119.286C105.331 119.286 103.711 119.731 103.118 118.548C102.864 118.057 102.864 117.32 102.864 116.829C102.864 116.829 101.593 117.183 100.899 116.338C99.7288 114.925 102.292 110.251 105.29 105.729Z" fill="#FFD9CE"/>
<path d="M207.734 62.5456C207.862 62.4337 208.007 62.3117 208.168 62.1794C208.026 62.3015 207.884 62.4236 207.734 62.5456Z" fill="#99E7FF"/>
<path d="M141.178 74.0879C141.178 74.0879 152.509 48.0105 157.14 41.9177C161.811 35.7765 171.439 36.1122 171.439 36.1122L171.424 34.3042H177.781C177.781 34.3042 170.915 48.0562 183.922 53.9507C188.832 69.9125 204.059 65.737 207.741 62.5457C209.216 65.2463 216.583 77.2793 212.654 86.3651C209.216 93.4852 196.937 92.0129 196.937 92.0129L194.48 86.8559H163.286H173.232L165.249 69.4319L162.539 76.0511C162.539 76.0511 159.093 84.8826 151.734 91.7688C146.478 96.6867 136.654 100.9 131.078 103.039L120.187 89.47C130.518 81.8438 141.178 74.0879 141.178 74.0879Z" fill="#99E7FF"/>
<path d="M196.047 75.7103L201.104 78.0167" stroke="#151414" stroke-width="1.36812" stroke-linecap="round" stroke-linejoin="round"/>
<path d="M194.228 87.84L197.526 65.6277" stroke="#151414" stroke-width="1.36812" stroke-linecap="round" stroke-linejoin="round"/>
<path d="M173.231 86.8459L163.286 86.856L162.549 76.0512L165.249 69.4219L173.231 86.8459Z" fill="#68C9FF"/>
<path d="M167.922 2.21531C170.396 0.831971 174.279 -0.543743 178.666 0.821796C186.709 3.32656 188.252 10.2916 189.315 14.9044C190.053 18.0957 190.79 21.7702 190.79 21.7702C190.79 21.7702 204.542 22.7518 203.067 36.7505C210.378 38.4212 218.04 48.2597 212.163 57.6608C211.074 59.3617 209.726 60.8827 208.169 62.1694C208.007 62.3016 207.863 62.4236 207.734 62.5355C204.052 65.7269 188.825 69.91 183.914 53.9405C170.897 48.0461 177.773 34.294 177.773 34.294C176.49 30.4364 176.666 26.2421 178.266 22.5051C182.439 22.2509 185.496 16.0868 180.967 13.1752C177.529 10.9629 173.593 16.6361 173.593 16.6361C173.593 16.6361 167.513 15.2858 162.63 12.6844C162.63 12.6844 162.63 12.6641 162.63 12.6565C162.63 12.6488 158.719 10.7696 157.644 7.28078C155.673 0.905715 163.777 -2.53229 167.922 2.21531Z" fill="#151414"/>
<path d="M162.928 76.43C164.321 73.1573 166.707 67.3468 168.197 62.5458" stroke="#151414" stroke-width="1.36812" stroke-linecap="round" stroke-linejoin="round"/>
<path d="M115.26 112.931L116.135 110.922" stroke="#A7756A" stroke-width="1.36812" stroke-linecap="round" stroke-linejoin="round"/>
<path d="M105.323 119.072C106.92 116.989 110.236 112.323 112.952 108.712" stroke="#A7756A" stroke-width="1.36812" stroke-linecap="round" stroke-linejoin="round"/>
<path d="M102.526 116.529C104.479 113.658 107.472 109.155 109.504 106.258" stroke="#A7756A" stroke-width="1.36812" stroke-linecap="round" stroke-linejoin="round"/>
<path d="M104.71 105.617C105.628 104.209 106.658 102.675 107.762 101.122" stroke="#A7756A" stroke-width="1.36812" stroke-linecap="round" stroke-linejoin="round"/>
<path d="M167.25 2.02979C166.686 2.42902 166.055 2.89437 165.496 3.36227" stroke="#F5EBDD" stroke-width="1.36812" stroke-linecap="round" stroke-linejoin="round"/>
<path d="M191.411 22.0549L192.019 24.9716" stroke="#F5EBDD" stroke-width="1.36812" stroke-linecap="round" stroke-linejoin="round"/>
<path d="M203.568 37.2108C203.172 39.2238 202.42 41.1501 201.348 42.8993" stroke="#F5EBDD" stroke-width="1.36812" stroke-linecap="round" stroke-linejoin="round"/>
<path d="M171.535 32.1045C172.511 31.7633 173.453 31.3308 174.348 30.8127" stroke="#A7756A" stroke-width="1.36812" stroke-linecap="round" stroke-linejoin="round"/>
<path d="M153.463 137.16C153.841 137.909 154.421 138.54 155.136 138.98C155.851 139.42 156.675 139.653 157.515 139.653C158.355 139.653 159.179 139.42 159.894 138.98C160.609 138.54 161.189 137.909 161.567 137.16C161.946 137.909 162.525 138.54 163.24 138.98C163.956 139.42 164.779 139.653 165.619 139.653C166.459 139.653 167.283 139.42 167.998 138.98C168.714 138.54 169.293 137.909 169.671 137.16C170.049 137.91 170.628 138.54 171.344 138.98C172.059 139.421 172.882 139.654 173.722 139.654C174.562 139.654 175.386 139.421 176.101 138.98C176.816 138.54 177.395 137.91 177.773 137.16C177.945 137.495 178.158 137.809 178.406 138.093C171.634 156.353 175.81 165.195 177.773 182.876C178.17 186.627 178.284 190.403 178.114 194.171H154.62C153.765 186.726 152.008 176.669 151.004 164.198C153.284 164.046 155.416 163.016 156.954 161.326C158.491 159.636 159.315 157.416 159.252 155.132C159.188 152.848 158.244 150.677 156.615 149.074C154.986 147.472 152.8 146.562 150.516 146.535C150.432 146.535 150.348 146.535 150.261 146.535C150.261 144.155 150.335 141.818 150.455 139.527C151.098 139.375 151.701 139.084 152.22 138.675C152.74 138.266 153.164 137.749 153.463 137.16Z" fill="#0B3EB8"/>
<path d="M153.303 209.973C148.05 213.849 146.254 216.216 146.691 219.295L160.124 218.628C160.124 218.628 165.042 213.938 168.579 213.097L168.584 213.107C170.928 212.497 173.323 212.104 175.74 211.935C176.64 205.855 176.992 199.706 176.793 193.563L156.402 194.465C157.666 202.536 157.472 206.897 153.303 209.973Z" fill="#6DB9FF"/>
<path d="M167.971 218.241L174.522 217.915C175.038 215.948 175.44 213.954 175.727 211.942C173.31 212.111 170.915 212.503 168.571 213.114L167.971 218.241Z" fill="#151414"/>
<path d="M156.421 202.884L160.927 202.554" stroke="#F5EBDD" stroke-width="1.64255" stroke-miterlimit="10" stroke-linecap="round"/>
<path d="M155.68 206.521L160.186 206.193" stroke="#F5EBDD" stroke-width="1.64255" stroke-miterlimit="10" stroke-linecap="round"/>
<path d="M217.179 205.194C214.062 210.93 213.438 213.835 215.137 216.439L227.023 210.145C227.023 210.145 229.492 203.814 232.339 201.554L232.349 201.561C234.213 200.015 236.217 198.645 238.335 197.469C236.575 191.579 234.289 185.86 231.507 180.379L213.417 189.833C217.981 196.609 219.652 200.642 217.179 205.194Z" fill="#6DB9FF"/>
<path d="M233.968 206.471L239.764 203.401C239.398 201.401 238.918 199.424 238.325 197.48C236.208 198.657 234.204 200.027 232.339 201.573L233.968 206.471Z" fill="#151414"/>
<path d="M217 197.452L220.942 195.244" stroke="#F5EBDD" stroke-width="1.64255" stroke-miterlimit="10" stroke-linecap="round"/>
<path d="M217.87 201.06L221.813 198.854" stroke="#F5EBDD" stroke-width="1.64255" stroke-miterlimit="10" stroke-linecap="round"/>
<path d="M181.272 139.619C181.127 139.601 180.982 139.578 180.84 139.548H180.809C180.672 139.515 180.537 139.477 180.405 139.433L180.339 139.415C180.199 139.364 180.059 139.311 179.925 139.247H179.907C179.772 139.184 179.652 139.115 179.513 139.039L179.49 139.024C179.357 138.946 179.229 138.861 179.106 138.769C178.854 138.579 178.623 138.362 178.417 138.124C178.168 137.84 177.955 137.526 177.783 137.19C177.405 137.94 176.826 138.571 176.111 139.011C175.396 139.451 174.573 139.685 173.733 139.685C172.893 139.685 172.069 139.451 171.354 139.011C170.639 138.571 170.06 137.94 169.682 137.19C169.303 137.94 168.724 138.57 168.009 139.011C167.293 139.451 166.47 139.684 165.63 139.684C164.79 139.684 163.966 139.451 163.251 139.011C162.535 138.57 161.956 137.94 161.578 137.19C161.199 137.94 160.62 138.57 159.904 139.011C159.189 139.451 158.365 139.684 157.525 139.684C156.685 139.684 155.862 139.451 155.146 139.011C154.431 138.57 153.852 137.94 153.473 137.19C153.175 137.78 152.752 138.297 152.233 138.706C151.714 139.116 151.113 139.407 150.47 139.56C150.844 132.663 151.703 125.8 153.041 119.024C154.876 119.529 156.795 119.659 158.682 119.405C160.569 119.152 162.385 118.519 164.021 117.546C171.068 113.521 172.832 93.8236 173.239 86.8484H194.473C206.752 97.8999 206.506 130.808 208.84 138.022C208.904 138.22 208.97 138.411 209.033 138.602C208.508 139.037 207.892 139.348 207.23 139.513C206.568 139.677 205.878 139.69 205.21 139.551C204.543 139.412 203.915 139.124 203.374 138.708C202.833 138.293 202.393 137.761 202.086 137.152C201.707 137.902 201.128 138.532 200.413 138.972C199.697 139.413 198.874 139.646 198.034 139.646C197.194 139.646 196.37 139.413 195.655 138.972C194.939 138.532 194.36 137.902 193.982 137.152C193.603 137.902 193.024 138.532 192.309 138.972C191.593 139.413 190.77 139.646 189.93 139.646C189.09 139.646 188.266 139.413 187.551 138.972C186.835 138.532 186.256 137.902 185.878 137.152C185.384 138.127 184.556 138.892 183.546 139.309C183.281 139.419 183.007 139.504 182.727 139.563H182.686C182.569 139.586 182.452 139.603 182.333 139.616H182.236C182.101 139.616 181.964 139.637 181.827 139.637C181.689 139.637 181.524 139.637 181.374 139.614L181.272 139.619Z" fill="#151414"/>
<path d="M159.355 155.372C159.355 157.632 158.49 159.806 156.937 161.448C155.383 163.089 153.261 164.074 151.004 164.199C150.602 159.186 150.32 153.773 150.269 148.005C150.269 147.515 150.269 147.026 150.269 146.538C150.351 146.538 150.434 146.538 150.523 146.538C152.865 146.541 155.111 147.472 156.766 149.129C158.422 150.785 159.353 153.03 159.355 155.372Z" fill="#0B3EB8"/>
<path fill-rule="evenodd" clip-rule="evenodd" d="M187.551 138.98C186.835 138.54 186.256 137.909 185.877 137.16C185.383 138.14 184.551 138.909 183.535 139.326C184.347 141.706 185.621 145.396 187.377 149.632C187.322 149.656 187.267 149.679 187.212 149.703C189.197 154.37 191.508 158.9 194.127 163.26C194.668 164.146 195.224 165.034 195.79 165.922C195.786 165.925 195.781 165.927 195.777 165.93C198.46 170.219 201.4 174.505 204.219 178.615C207.266 183.058 210.172 187.295 212.458 191.105L233.564 180.376C231.377 175.173 228.732 170.175 225.661 165.439C221.799 159.527 218.924 155.33 216.723 152.117C212.256 145.594 210.566 143.127 209.033 138.609C208.508 139.044 207.892 139.356 207.23 139.52C206.568 139.685 205.878 139.698 205.21 139.558C204.543 139.419 203.915 139.131 203.374 138.716C202.833 138.3 202.393 137.768 202.086 137.16C201.707 137.909 201.128 138.54 200.413 138.98C199.697 139.42 198.874 139.653 198.034 139.653C197.194 139.653 196.37 139.42 195.655 138.98C194.939 138.54 194.36 137.909 193.982 137.16C193.603 137.909 193.024 138.54 192.308 138.98C191.593 139.42 190.77 139.653 189.93 139.653C189.089 139.653 188.266 139.42 187.551 138.98Z" fill="#0B3EB8"/>
<path d="M164.021 117.546C162.381 118.514 160.562 119.141 158.673 119.388C156.784 119.635 154.865 119.498 153.031 118.986C156.845 99.54 163.286 86.8484 163.286 86.8484H173.239C172.832 93.8312 171.068 113.529 164.021 117.546Z" fill="#68C9FF"/>
<path d="M164.016 23.7131C164.443 23.9292 165.977 23.9928 166.488 22.7722" stroke="#A7756A" stroke-width="1.36812" stroke-linecap="round" stroke-linejoin="round"/>
<path d="M165.005 18.3424C164.598 18.3424 164.268 18.0123 164.268 17.605C164.268 17.1977 164.598 16.8676 165.005 16.8676C165.413 16.8676 165.743 17.1977 165.743 17.605C165.743 18.0123 165.413 18.3424 165.005 18.3424Z" fill="#A7756A"/>
<path d="M179.001 17.3583L176.548 19.0773" stroke="#A7756A" stroke-width="1.36812" stroke-linecap="round" stroke-linejoin="round"/>
<path d="M194.719 86.8558H163.286" stroke="#151414" stroke-width="1.36812" stroke-miterlimit="10" stroke-linecap="round"/>
<path d="M185.697 87.5933C185.697 87.5933 179.945 95.817 182.645 96.7045C185.142 97.5233 185.633 91.3822 185.697 87.5933Z" stroke="#FFD9CE" stroke-width="1.36812" stroke-linecap="round" stroke-linejoin="round"/>
<path d="M185.875 87.5933C185.875 87.5933 188.825 94.9677 191.034 93.7318C192.474 92.9333 188.825 89.3199 185.875 87.5933Z" stroke="#FFD9CE" stroke-width="1.36812" stroke-linecap="round" stroke-linejoin="round"/>
</svg>
